<?xml version="1.0" encoding="UTF-8"?>
<svg width="24px" height="14px" viewBox="0 0 24 14" version="1.1" xmlns="http://www.w3.org/2000/svg" xmlns:xlink="http://www.w3.org/1999/xlink">
    <title>Shape Copy</title>
    <g id="Page-1" stroke="none" stroke-width="1" fill="none" fill-rule="evenodd">
        <g id="My-Profile" transform="translate(-1063.000000, -164.000000)" fill="#babecb" fill-rule="nonzero">
            <g id="Right-Menu" transform="translate(1064.000000, 112.000000)">
                <path d="M18.44,56.03 L14.41,52 L11,52 C10.4477153,52 10,52.4477153 10,53 C10,53.5522847 10.4477153,54 11,54 L13.59,54 L13.59,54 L15.59,56 L4,56 C1.2,56 -1,58.2 -1,61 C-1,63.8 1.2,66 4,66 C6.46,66 8.45,64.31 8.9,62 L10.55,62 L13.32,59.23 C13.11,59.77 13,60.37 13,61 C13,63.8 15.2,66 18,66 C20.8,66 23,63.8 23,61 C23,58.35 21.03,56.23 18.44,56.03 Z M6.82,62 C6.4,63.15 5.28,64 4,64 C2.37,64 1,62.63 1,61 C1,59.37 2.37,58 4,58 C5.28,58 6.4,58.85 6.82,60 L4,60 C3.44771525,60 3,60.4477153 3,61 C3,61.5522847 3.44771525,62 4,62 L6.82,62 L6.82,62 Z M18,64 C16.34,64 15,62.66 15,61 C15,59.34 16.34,58 18,58 C19.66,58 21,59.34 21,61 C21,62.66 19.66,64 18,64 Z" id="Shape-Copy"></path>
            </g>
        </g>
    </g>
</svg>