<svg xmlns="http://www.w3.org/2000/svg" xmlns:xlink="http://www.w3.org/1999/xlink" width="16" height="16" viewBox="0 0 16 16"><g transform="translate(-212 -71)"><g transform="translate(212 71)"><path d="M15.25,1.329H12.1V0H10.961V1.329H5.039V0H3.9V1.329H.75A.559.559,0,0,0,.18,1.9V15.431A.559.559,0,0,0,.75,16h14.5a.559.559,0,0,0,.569-.569V1.9A.571.571,0,0,0,15.25,1.329ZM4.071,13.077a1.12,1.12,0,1,1,1.12-1.12A1.11,1.11,0,0,1,4.071,13.077Zm0-3.34a1.12,1.12,0,1,1,1.12-1.12A1.11,1.11,0,0,1,4.071,9.737ZM8,13.077a1.12,1.12,0,1,1,1.12-1.12A1.122,1.122,0,0,1,8,13.077Zm0-3.34a1.12,1.12,0,1,1,1.12-1.12A1.122,1.122,0,0,1,8,9.737Zm3.929,3.34a1.12,1.12,0,1,1,1.12-1.12A1.11,1.11,0,0,1,11.929,13.077Zm0-3.34a1.12,1.12,0,1,1,1.12-1.12A1.11,1.11,0,0,1,11.929,9.737Zm2.752-5.257v.228H1.319V2.467H3.9V3.834H5.039V2.467h5.922V3.834H12.1V2.467h2.581V4.479Z" fill="#babecb"/></g></g></svg>