<?xml version="1.0" encoding="UTF-8"?>
<svg width="53" height="53" viewBox="0 0 53 53" version="1.1" xmlns="http://www.w3.org/2000/svg" xmlns:xlink="http://www.w3.org/1999/xlink">
    <title>Map</title>
    <g id="Platform" stroke="none" stroke-width="1" fill="none" fill-rule="evenodd">
        <g id="Trip-profile-Copy" transform="translate(-457.000000, -1560.000000)" fill="#BABECB" fill-rule="nonzero">
            <path d="M508.527778,1560 L508.056667,1560.08833 L492.333333,1566.18333 L474.666667,1560 L458.06,1565.59444 C457.441667,1565.80056 457,1566.33056 457,1567.00778 L457,1611.52778 C457,1612.35222 457.647778,1613 458.472222,1613 L458.943333,1612.91167 L474.666667,1606.81667 L492.333333,1613 L508.94,1607.40556 C509.558333,1607.19944 510,1606.66944 510,1605.99222 L510,1561.47222 C510,1560.64778 509.352222,1560 508.527778,1560 Z M493,1607 L475,1600.82071 L475,1566 L493,1572.17929 L493,1607 Z" id="Shape"></path>
        </g>
    </g>
</svg>