<?xml version="1.0" encoding="UTF-8"?>
<svg width="16" height="16" viewBox="0 0 16 16" version="1.1" xmlns="http://www.w3.org/2000/svg" xmlns:xlink="http://www.w3.org/1999/xlink">
    <title>Map</title>
    <g id="Platform" stroke="none" stroke-width="1" fill="none" fill-rule="evenodd">
        <g id="Trip-profile" transform="translate(-705.000000, -1090.000000)" fill="#BABECB" fill-rule="nonzero">
            <g id="Question" transform="translate(400.000000, 113.000000)">
                <path d="M320.555556,977 L320.413333,977.026667 L315.666667,978.866667 L310.333333,977 L305.32,978.688889 C305.133333,978.751111 305,978.911111 305,979.115556 L305,992.555556 C305,992.804444 305.195556,993 305.444444,993 L305.586667,992.973333 L310.333333,991.133333 L315.666667,993 L320.68,991.311111 C320.866667,991.248889 321,991.088889 321,990.884444 L321,977.444444 C321,977.195556 320.804444,977 320.555556,977 Z M315.666667,991.222222 L310.333333,989.346667 L310.333333,978.777778 L315.666667,980.653333 L315.666667,991.222222 Z" id="Shape"></path>
            </g>
        </g>
    </g>
</svg>