<?xml version="1.0" encoding="UTF-8"?>
<svg width="18px" height="16px" viewBox="0 0 18 16" version="1.1" xmlns="http://www.w3.org/2000/svg" xmlns:xlink="http://www.w3.org/1999/xlink">
    <title>stand-by copy</title>
    <g id="Platform" stroke="none" stroke-width="1" fill="none" fill-rule="evenodd">
        <g id="My-Profile" transform="translate(-205.000000, -506.000000)" fill="#BABECB" fill-rule="nonzero">
            <g id="stand-by-copy" transform="translate(205.000000, 506.000000)">
                <path d="M3.1654337,0.16 L4.5854337,1.58 C2.28317793,3.44625939 1.40806568,6.56150029 2.40172013,9.35362432 C3.39537457,12.1457483 6.04177962,14.0077601 9.0054337,14 C11.9629974,13.9958405 14.598811,12.1333394 15.590421,9.34696007 C16.5820311,6.56058076 14.6393729,2.48296788 12.3493684,0.611316314 L14.8454337,0.16 C17.7115727,2.6078905 18.7487415,6.58247452 17.4441631,10.1187149 C16.1395847,13.6549553 12.7696406,16.0036814 9.0004337,16.0036814 C5.23122677,16.0036814 1.86128273,13.6549553 0.5567043,10.1187149 C-0.747874132,6.58247452 0.289294666,2.6078905 3.1554337,0.16 L3.1654337,0.16 Z M8,3 L10,3 L10,11 L8,11 L8,3 Z" id="Shape"></path>
            </g>
        </g>
    </g>
</svg>