<?xml version="1.0" encoding="UTF-8"?>
<svg width="20" height="20" viewBox="0 0 20 20" version="1.1" xmlns="http://www.w3.org/2000/svg" xmlns:xlink="http://www.w3.org/1999/xlink">
    <title>Setting</title>
    <g id="Platform" stroke="none" stroke-width="1" fill="none" fill-rule="evenodd">
        <g id="Bike-profile" transform="translate(-968.000000, -128.000000)" fill="#BABECB" fill-rule="nonzero">
            <g id="Question" transform="translate(400.000000, 112.000000)">
                <path d="M588,30 L588,34 C588,35.1045695 587.104569,36 586,36 L582,36 L582,34 C582,32.8954305 581.104569,32 580,32 C578.895431,32 578,32.8954305 578,34 L578,36 L574,36 C572.895431,36 572,35.1045695 572,34 L572,30 L570,30 C568.895431,30 568,29.1045695 568,28 C568,26.8954305 568.895431,26 570,26 L572,26 L572,22 C572,20.9 572.9,20 574,20 L578,20 L578,18 C578,16.8954305 578.895431,16 580,16 C581.104569,16 582,16.8954305 582,18 L582,20 L586,20 C587.104569,20 588,20.8954305 588,22 L588,26 L586,26 C584.895431,26 584,26.8954305 584,28 C584,29.1045695 584.895431,30 586,30 L588,30 Z" id="Path"></path>
            </g>
        </g>
    </g>
</svg>