<?xml version="1.0" encoding="UTF-8"?>
<svg width="20px" height="20px" viewBox="0 0 20 20" version="1.1" xmlns="http://www.w3.org/2000/svg" xmlns:xlink="http://www.w3.org/1999/xlink">
    <title>Settings</title>
    <g id="Page-1" stroke="none" stroke-width="1" fill="none" fill-rule="evenodd">
        <g id="My-Profile" transform="translate(-205.000000, -448.000000)" fill="#BABECB" fill-rule="nonzero">
            <g id="Left-Menu" transform="translate(190.000000, 112.000000)">
                <path d="M32.1593316,346.98 C32.1993316,346.66 32.2293316,346.34 32.2293316,346 C32.2293316,345.66 32.1993316,345.34 32.1593316,345.02 L34.2693316,343.37 C34.4593316,343.22 34.5093316,342.95 34.3893316,342.73 L32.3893316,339.27 C32.2693316,339.05 31.9993316,338.97 31.7793316,339.05 L29.2893316,340.05 C28.7693316,339.65 28.2093316,339.32 27.5993316,339.07 L27.2193316,336.42 C27.1893316,336.18 26.9793316,336 26.7293316,336 L22.7293316,336 C22.4793316,336 22.2693316,336.18 22.2393316,336.42 L21.8593316,339.07 C21.2493316,339.32 20.6893316,339.66 20.1693316,340.05 L17.6793316,339.05 C17.4493316,338.96 17.1893316,339.05 17.0693316,339.27 L15.0693316,342.73 C14.9393316,342.95 14.9993316,343.22 15.1893316,343.37 L17.2993316,345.02 C17.2593316,345.34 17.2293316,345.67 17.2293316,346 C17.2293316,346.33 17.2593316,346.66 17.2993316,346.98 L15.1893316,348.63 C14.9993316,348.78 14.9493316,349.05 15.0693316,349.27 L17.0693316,352.73 C17.1893316,352.95 17.4593316,353.03 17.6793316,352.95 L20.1693316,351.95 C20.6893316,352.35 21.2493316,352.68 21.8593316,352.93 L22.2393316,355.58 C22.2693316,355.82 22.4793316,356 22.7293316,356 L26.7293316,356 C26.9793316,356 27.1893316,355.82 27.2193316,355.58 L27.5993316,352.93 C28.2093316,352.68 28.7693316,352.34 29.2893316,351.95 L31.7793316,352.95 C32.0093316,353.04 32.2693316,352.95 32.3893316,352.73 L34.3893316,349.27 C34.5093316,349.05 34.4593316,348.78 34.2693316,348.63 L32.1593316,346.98 Z M24.7293316,349.5 C22.7993316,349.5 21.2293316,347.93 21.2293316,346 C21.2293316,344.07 22.7993316,342.5 24.7293316,342.5 C26.6593316,342.5 28.2293316,344.07 28.2293316,346 C28.2293316,347.93 26.6593316,349.5 24.7293316,349.5 Z" id="Shape"></path>
            </g>
        </g>
    </g>
</svg>