<?xml version="1.0" encoding="UTF-8"?>
<svg width="20px" height="20px" viewBox="0 0 20 20" version="1.1" xmlns="http://www.w3.org/2000/svg" xmlns:xlink="http://www.w3.org/1999/xlink">
    <title>Star</title>
    <g id="Page-1" stroke="none" stroke-width="1" fill="none" fill-rule="evenodd">
        <g id="My-Profile" transform="translate(-204.000000, -285.000000)" fill="#BABECB" fill-rule="nonzero">
            <g id="Left-Menu" transform="translate(190.000000, 112.000000)">
                <path d="M33.5653237,180.388587 L26.6914107,180.388587 L24.4140194,173.299022 C24.3553743,173.120598 24.1887903,173 24.0009759,173 C23.8131614,173 23.6465774,173.120598 23.5879324,173.299022 L21.308802,180.388587 L14.4348889,180.388587 C14.2489184,180.388553 14.0835172,180.506802 14.0233834,180.682782 C13.9632495,180.858762 14.0216993,181.053503 14.168802,181.167283 L19.6522802,185.412065 L17.3705411,192.428152 C17.3123063,192.607313 17.3760769,192.803595 17.5284924,192.914316 C17.6809079,193.025038 17.8872894,193.025007 18.0396715,192.914239 L24.0001063,188.584239 L29.9605411,192.914239 C30.1129232,193.025007 30.3193047,193.025038 30.4717202,192.914316 C30.6241357,192.803595 30.6879064,192.607313 30.6296715,192.428152 L28.3479324,185.412065 L33.8296715,181.167283 C33.9765241,181.053699 34.0350541,180.859401 33.9753747,180.683602 C33.9156953,180.507804 33.750975,180.389294 33.5653237,180.388587 Z" id="Path"></path>
            </g>
        </g>
    </g>
</svg>