<?xml version="1.0" encoding="UTF-8"?>
<svg width="20" height="20" viewBox="0 0 20 20" version="1.1" xmlns="http://www.w3.org/2000/svg" xmlns:xlink="http://www.w3.org/1999/xlink">
    <title>thumbs-up</title>
    <g id="Platform" stroke="none" stroke-width="1" fill="none" fill-rule="evenodd">
        <g id="Share-Widget" transform="translate(-483.000000, -1440.000000)" fill="#BABECB" fill-rule="nonzero">
            <g id="thumbs-up" transform="translate(483.000000, 1440.000000)">
                <path d="M11,0 L12,0 L12,3 L15,10 L15,18 C15,19.1045695 14.1045695,20 13,20 L5,20 C3.9,20 2.69,19.16 2.3,18.12 L0,12 L0,10 C0,8.8954305 0.8954305,8 2,8 L9,8 L9,2 C9,0.8954305 9.8954305,0 11,0 Z M17,10 L20,10 L20,20 L17,20 L17,10 Z" id="Shape"></path>
            </g>
        </g>
    </g>
</svg>