<?xml version="1.0" encoding="UTF-8"?>
<svg width="20" height="16" viewBox="0 0 20 16" version="1.1" xmlns="http://www.w3.org/2000/svg" xmlns:xlink="http://www.w3.org/1999/xlink">
    <title>view-hide</title>
    <g id="assets" stroke="none" stroke-width="1" fill="none" fill-rule="evenodd">
        <g id="zondicons" transform="translate(-37.000000, -514.000000)" fill="#BABECB" fill-rule="nonzero">
            <g id="view-hide" transform="translate(37.000000, 514.000000)">
                <path d="M12.81,2.36 L11.04,4.14 C9.65926718,3.76949959 8.18576668,4.16403788 7.17490228,5.17490228 C6.16403788,6.18576668 5.76949959,7.65926718 6.14,9.04 L3.38,11.79 C2.06,10.79 0.96,9.49 0.2,8 C2.550759,3.39053417 7.79624308,1.04255558 12.8,2.36 L12.81,2.36 Z M16.61,4.21 C17.94,5.21 19.04,6.51 19.81,8 C17.4574398,12.6184183 12.2000671,14.967989 7.19,13.64 L8.96,11.86 C10.3407328,12.2305004 11.8142333,11.8359621 12.8250977,10.8250977 C13.8359621,9.81423332 14.2305004,8.34073282 13.86,6.96 L16.62,4.21 L16.61,4.21 Z M16.36,0.22 L17.78,1.64 L3.64,15.78 L2.22,14.36 L16.36,0.22 Z" id="Shape"></path>
            </g>
        </g>
    </g>
</svg>