<?xml version="1.0" encoding="UTF-8"?>
<svg width="19px" height="20px" viewBox="0 0 19 20" version="1.1" xmlns="http://www.w3.org/2000/svg" xmlns:xlink="http://www.w3.org/1999/xlink">
    <title>stand-by</title>
    <g id="Page-1" stroke="none" stroke-width="1" fill="none" fill-rule="evenodd">
        <g id="My-Profile" transform="translate(-204.000000, -502.000000)" fill="#BABECB" fill-rule="nonzero">
            <g id="stand-by" transform="translate(204.000000, 502.000000)">
                <path d="M4.16,4.16 L5.58,5.58 C3.27774423,7.44625939 2.40263198,10.5615003 3.39628642,13.3536243 C4.38994087,16.1457483 7.03634592,18.0077601 10,18 C12.9575637,17.9958405 15.5933773,16.1333394 16.5849873,13.3469601 C17.5765974,10.5605808 16.7100045,7.45165157 14.42,5.58 L15.84,4.16 C18.706139,6.6078905 19.7433078,10.5824745 18.4387294,14.1187149 C17.134151,17.6549553 13.7642069,20.0036814 9.995,20.0036814 C6.22579307,20.0036814 2.85584903,17.6549553 1.55127059,14.1187149 C0.246692164,10.5824745 1.28386096,6.6078905 4.15,4.16 L4.16,4.16 Z M9,0 L11,0 L11,8 L9,8 L9,0 Z" id="Shape"></path>
            </g>
        </g>
    </g>
</svg>