<?xml version="1.0" encoding="UTF-8"?>
<svg width="15" height="15" viewBox="0 0 15 15" version="1.1" xmlns="http://www.w3.org/2000/svg" xmlns:xlink="http://www.w3.org/1999/xlink">
    <title>Arrow</title>
    <g id="assets" stroke="none" stroke-width="1" fill="none" fill-rule="evenodd">
        <g id="Bike" transform="translate(-609.000000, -8.000000)" fill="#E83F3F" fill-rule="nonzero">
            <g id="Shape-Copy">
                <path d="M616.184015,8.22559957 C616.494486,7.92480014 616.983268,7.92480014 617.293739,8.22559957 C617.593721,8.51623685 617.593721,8.99995483 617.293739,9.28991464 L611.6668,14.7415654 L623.211935,14.7415654 C623.644776,14.7415654 624,15.0748837 624,15.4942415 C624,15.9135992 623.644776,16.2577571 623.211935,16.2577571 L611.6668,16.2577571 L617.293739,21.6992457 C617.593721,22.0000452 617.593721,22.4844406 617.293739,22.7744004 C616.983268,23.0751999 616.494486,23.0751999 616.184015,22.7744004 L609.224987,16.0321575 C608.925004,15.7415203 608.925004,15.2578023 609.224987,14.9678425 L616.184015,8.22559957 Z" transform="translate(616.500000, 15.500000) scale(-1, 1) translate(-616.500000, -15.500000) "></path>
            </g>
        </g>
    </g>
</svg>