<?xml version="1.0" encoding="UTF-8"?>
<svg width="17" height="17" viewBox="0 0 17 17" version="1.1" xmlns="http://www.w3.org/2000/svg" xmlns:xlink="http://www.w3.org/1999/xlink">
    <title>Arrow</title>
    <g id="Platform" stroke="none" stroke-width="1" fill="none" fill-rule="evenodd">
        <g id="Bike-profile" transform="translate(-415.000000, -127.000000)" fill="#E83F3F" fill-rule="nonzero">
            <g id="Question" transform="translate(400.000000, 112.000000)">
                <path d="M23.1840146,16.2255996 C23.4944857,15.9248001 23.9832679,15.9248001 24.293739,16.2255996 C24.5937213,16.5162368 24.5937213,16.9999548 24.293739,17.2899146 L18.6667999,22.7415654 L30.2119348,22.7415654 C30.6447763,22.7415654 31,23.0748837 31,23.4942415 C31,23.9135992 30.6447763,24.2577571 30.2119348,24.2577571 L18.6667999,24.2577571 L24.293739,29.6992457 C24.5937213,30.0000452 24.5937213,30.4844406 24.293739,30.7744004 C23.9832679,31.0751999 23.4944857,31.0751999 23.1840146,30.7744004 L16.2249867,24.0321575 C15.9250044,23.7415203 15.9250044,23.2578023 16.2249867,22.9678425 L23.1840146,16.2255996 Z" id="Shape-Copy"></path>
            </g>
        </g>
    </g>
</svg>