<svg xmlns="http://www.w3.org/2000/svg" xmlns:xlink="http://www.w3.org/1999/xlink" width="39" height="40" viewBox="0 0 39 40">
  <defs>
    <clipPath id="clip-path">
      <rect id="Rectangle_1563" data-name="Rectangle 1563" width="39" height="40" rx="2" transform="translate(0.432 -0.376)" fill="#f1472f" stroke="#707070" stroke-width="1"/>
    </clipPath>
  </defs>
  <g id="Mask_Group_3170" data-name="Mask Group 3170" transform="translate(-0.432 0.376)" clip-path="url(#clip-path)">
    <g id="video-player" transform="translate(0 0)">
      <g id="Group_11239" data-name="Group 11239" transform="translate(0 0)">
        <g id="Group_11238" data-name="Group 11238">
          <path id="Path_30594" data-name="Path 30594" d="M32.707,4.667H0V43.915H39.248V4.667ZM5.233,42.345H1.308v-4.71H5.233Zm0-6.28H1.308v-4.71H5.233Zm0-6.28H1.308v-4.71H5.233Zm0-6.28H1.308V18.8H5.233Zm0-6.28H1.308v-4.71H5.233Zm0-6.28H1.308V6.237H5.233Zm27.474,31.4H6.541V6.237H32.707Zm5.233,0H34.015v-4.71H37.94Zm0-6.28H34.015v-4.71H37.94Zm0-6.28H34.015v-4.71H37.94Zm0-6.28H34.015V18.8H37.94Zm0-6.28H34.015v-4.71H37.94Zm0-6.28H34.015V6.237H37.94Z" transform="translate(0 -4.667)" fill="#f1472f"/>
        </g>
        <path id="Path_30597" data-name="Path 30597" d="M8.564,1.629H35.686v36.93H8.564Z" transform="translate(-2.562 -0.487)" fill="#f1472f"/>
      </g>
      <g id="Group_11241" data-name="Group 11241" transform="translate(14.391 13.733)">
        <g id="Group_11240" data-name="Group 11240">
          <path id="Path_30595" data-name="Path 30595" d="M30.915,25.159a.654.654,0,0,0-.243-.243l-9.158-5.233a.654.654,0,0,0-.981.57V30.719a.654.654,0,0,0,.981.566l9.158-5.233A.654.654,0,0,0,30.915,25.159Zm-9.074,4.432V21.38l7.185,4.105Z" transform="translate(-20.533 -19.595)" fill="#fff"/>
          <path id="Path_30596" data-name="Path 30596" d="M1.091,1.573,9.631,6.487l-8.689,5Z" transform="translate(-0.282 -0.47)" fill="#fff" stroke="#fff" stroke-width="1"/>
        </g>
      </g>
    </g>
  </g>
</svg>
