<?xml version="1.0" encoding="UTF-8"?>
<svg width="33px" height="33px" viewBox="0 0 33 33" version="1.1" xmlns="http://www.w3.org/2000/svg" xmlns:xlink="http://www.w3.org/1999/xlink">
    <title>Shape Copy</title>
    <g id="Platform" stroke="none" stroke-width="1" fill="white" fill-rule="evenodd">
        <g id="Photo-Contest---not-logged-in" transform="translate(-23.000000, -108.000000)" fill="white" fill-rule="nonzero">
            <path d="M38.8048322,108.496319 C39.4878686,107.83456 40.5631895,107.83456 41.2462259,108.496319 C41.9061868,109.135721 41.9061868,110.199901 41.2462259,110.837812 L28.8669598,122.831444 L54.2662566,122.831444 C55.2185079,122.831444 56,123.564744 56,124.487331 C56,125.409918 55.2185079,126.167066 54.2662566,126.167066 L28.8669598,126.167066 L41.2462259,138.138341 C41.9061868,138.800099 41.9061868,139.865769 41.2462259,140.503681 C40.5631895,141.16544 39.4878686,141.16544 38.8048322,140.503681 L23.4949707,125.670747 C22.8350098,125.031345 22.8350098,123.967165 23.4949707,123.329253 L38.8048322,108.496319 Z" id="Shape-Copy"></path>
        </g>
    </g>
</svg>