<svg xmlns="http://www.w3.org/2000/svg" xmlns:xlink="http://www.w3.org/1999/xlink" width="28" height="28" viewBox="0 0 28 28"><g transform="translate(-0.15 0)"><g transform="translate(0.618 6.551)"><path d="M22.023,12.377a3.907,3.907,0,0,0-1.131.167l-.934-1.735h.5a.784.784,0,0,0,.784-.784V6.888a.784.784,0,0,0-1.1-.718l-2.165.953-.749-1.391a.784.784,0,0,0-.69-.412H13.4a.784.784,0,0,0-.554.23L11.275,7.118a.784.784,0,0,0,1.109,1.109l1.338-1.338h2.343l.468.87v1.5a13.64,13.64,0,0,0-4.7,1.11v5.142h2.352a3.9,3.9,0,0,0,1.462-.284,3.422,3.422,0,0,1-3.03,1.852h-4.7a.784.784,0,0,0,0,1.568h4.7c3.581,0,5.489-3.437,5.489-7.057v-.784h.075l1.336,2.48a3.918,3.918,0,1,0,2.51-.912Zm0,6.273a2.351,2.351,0,0,1-1.741-3.932l1.051,1.952a.784.784,0,1,0,1.381-.743l-1.052-1.953a2.352,2.352,0,1,1,.361,4.677Z" transform="translate(0.82 -5.32)" fill="#40a8c4"/><path d="M11.082,15.109V10.673c-1.4.634-2.23.865-3.525-.091a7.763,7.763,0,0,0-5.2-1.746.784.784,0,1,0,0,1.568,6.51,6.51,0,0,1,3.92,1.15v1.2a3.911,3.911,0,1,0,1.489,2.35ZM3.92,18.245a2.352,2.352,0,1,1,2.352-2.352A2.355,2.355,0,0,1,3.92,18.245Z" transform="translate(0 -4.916)" fill="#40a8c4"/><circle cx="0.784" cy="0.784" r="0.784" transform="translate(3.136 10.193)" fill="#40a8c4"/></g></g></svg>