<?xml version="1.0" encoding="UTF-8"?>
<svg width="16" height="16" viewBox="0 0 16 16" version="1.1" xmlns="http://www.w3.org/2000/svg" xmlns:xlink="http://www.w3.org/1999/xlink">
    <title>calendar</title>
    <g id="Platform" stroke="none" stroke-width="1" fill="none" fill-rule="evenodd">
        <g id="Create-trip-post" transform="translate(-481.000000, -374.000000)" fill="#e83f3f" fill-rule="nonzero">
            <g id="Creat-a-post" transform="translate(400.000000, 112.000000)">
                <g id="calendar" transform="translate(81.000000, 262.000000)">
                    <path d="M14,2.66666667 C15.1045695,2.66666667 16,3.56209717 16,4.66666667 L16,13.3333333 C16,14.4379028 15.1045695,15.3333333 14,15.3333333 L2,15.3333333 C0.8954305,15.3333333 0,14.4379028 0,13.3333333 L0,4.66666667 C0,3.56209717 0.8954305,2.66666667 2,2.66666667 L14,2.66666667 Z M14.6666667,6 L1.33333333,6 L1.33333333,13.3333333 C1.33333333,13.7015232 1.63181017,14 2,14 L14,14 C14.3681898,14 14.6666667,13.7015232 14.6666667,13.3333333 L14.6666667,6 Z M12,0 C12.3681898,0 12.6666667,0.298476833 12.6666667,0.666666667 L12.6666667,0.666666667 L12.6666667,2 L11.3333333,2 L11.3333333,0.666666667 C11.3333333,0.298476833 11.6318102,0 12,0 Z M4,0 C4.36818983,0 4.66666667,0.298476833 4.66666667,0.666666667 L4.66666667,0.666666667 L4.66666667,2 L3.33333333,2 L3.33333333,0.666666667 C3.33333333,0.298476833 3.63181017,0 4,0 Z" id="Combined-Shape"></path>
                </g>
            </g>
        </g>
    </g>
</svg>