<?xml version="1.0" encoding="UTF-8"?>
<svg width="20" height="18" viewBox="0 0 20 18" version="1.1" xmlns="http://www.w3.org/2000/svg" xmlns:xlink="http://www.w3.org/1999/xlink">
<title>Camera</title>
<g id="Platform" stroke="none" strokeWidth="1" fill="none" fillRule="evenodd">
<g id="My-Bikes" transform="translate(-1067.000000, -457.000000)" fill="#e83f3f" fillRule="nonzero">
<g id="camera" transform="translate(1067.000000, 457.000000)">
<path d="M0,4 C0,2.9 0.9,2 2,2 L5,2 L7,0 L13,0 L15,2 L18,2 C19.1045695,2 20,2.8954305 20,4 L20,14 C20,15.1045695 19.1045695,16 18,16 L2,16 C0.8954305,16 0,15.1045695 0,14 L0,4 Z M10,14 C12.7614237,14 15,11.7614237 15,9 C15,6.23857625 12.7614237,4 10,4 C7.23857625,4 5,6.23857625 5,9 C5,11.7614237 7.23857625,14 10,14 Z M9.99999994,12 C8.92820322,12 7.93782213,11.4282033 7.40192374,10.5 C6.86602534,9.57179678 6.86602534,8.42820322 7.40192374,7.5 C7.93782213,6.57179674 8.92820322,6 9.99999994,6 C11.6568542,6 12.9999999,7.34314575 12.9999999,9 C12.9999999,10.6568542 11.6568542,12 9.99999994,12 L9.99999994,12 Z" id="Shape"></path>
</g>
</g>
</g>
</svg>