<?xml version="1.0" encoding="UTF-8"?>
<svg width="12" height="12" viewBox="0 0 12 12" version="1.1" xmlns="http://www.w3.org/2000/svg" xmlns:xlink="http://www.w3.org/1999/xlink">
    <title>Check</title>
    <g id="Platform" stroke="none" stroke-width="1" fill="none" fill-rule="evenodd">
        <g id="Create-a-bike-post---bike-drop-down" transform="translate(-577.000000, -417.000000)" fill="#E83F3F" fill-rule="nonzero">
            <g id="Creat-a-post" transform="translate(400.000000, 112.000000)">
                <g id="Bike" transform="translate(81.000000, 238.000000)">
                    <path d="M102,67 C98.6727273,67 96,69.6727273 96,73 C96,76.3272727 98.6727273,79 102,79 C105.327273,79 108,76.3272727 108,73 C108,69.6727273 105.327273,67 102,67 Z M105.463636,71.1181818 L105.463636,71.1181818 L101.1,75.6454545 C101.045455,75.7 100.990909,75.7272727 100.909091,75.7272727 C100.827273,75.7272727 100.745455,75.7 100.718182,75.6454545 L98.5909091,73.3545455 L98.5363636,73.3 C98.4818182,73.2454545 98.4545455,73.1636364 98.4545455,73.1090909 C98.4545455,73.0545455 98.4818182,72.9727273 98.5363636,72.9181818 L98.9181818,72.5363636 C99.0272727,72.4272727 99.1909091,72.4272727 99.3,72.5363636 L99.3272727,72.5636364 L100.827273,74.1727273 C100.881818,74.2272727 100.963636,74.2272727 101.018182,74.1727273 L104.672727,70.3818182 L104.7,70.3818182 C104.809091,70.2727273 104.972727,70.2727273 105.081818,70.3818182 L105.463636,70.7636364 C105.572727,70.8454545 105.572727,71.0090909 105.463636,71.1181818 L105.463636,71.1181818 Z" id="Shape"></path>
                </g>
            </g>
        </g>
    </g>
</svg>