<?xml version="1.0" encoding="UTF-8"?>
<svg width="26" height="26" viewBox="0 0 26 26" version="1.1" xmlns="http://www.w3.org/2000/svg" xmlns:xlink="http://www.w3.org/1999/xlink">
    <title>Check</title>
    <g id="Platform" stroke="none" stroke-width="1" fill="none" fill-rule="evenodd">
        <g id="Create-a-bike-post---bike-drop-down" transform="translate(-792.000000, -392.000000)">
            <g id="Creat-a-post" transform="translate(400.000000, 112.000000)">
                <g id="Bike" transform="translate(81.000000, 238.000000)">
                    <g id="Group-Copy" transform="translate(312.000000, 43.000000)">
                        <rect id="Rectangle-6-Copy" stroke="#7ED321" fill-opacity="0.67" fill="#85C540" x="-0.5" y="-0.5" width="25" height="25" rx="12.5"></rect>
                        <path d="M12.1270618,5.22559957 C12.4372087,4.92480014 12.9254806,4.92480014 13.2356275,5.22559957 C13.5352965,5.51623685 13.5352965,5.99995483 13.2356275,6.28991464 L8.9168645,10.2241814 L16.5272145,17.9582307 C16.8268835,18.2590301 16.8268835,18.7434256 16.5272145,19.0333854 C16.2170675,19.3341848 15.7287957,19.3341848 15.4186488,19.0333854 L7.22475174,10.7563389 C6.92508275,10.4657016 6.92508275,9.98198365 7.22475174,9.69202384 L12.1270618,5.22559957 Z" id="Shape-Copy-2" fill="#FFFFFF" fill-rule="nonzero" transform="translate(11.875983, 12.129492) rotate(-90.000000) translate(-11.875983, -12.129492) "></path>
                    </g>
                </g>
            </g>
        </g>
    </g>
</svg>