<?xml version="1.0" encoding="UTF-8"?>
<svg width="8" height="8" viewBox="0 0 8 8" version="1.1" xmlns="http://www.w3.org/2000/svg" xmlns:xlink="http://www.w3.org/1999/xlink">
    <title>Close</title>
    <g id="Platform" stroke="none" stroke-width="1" fill="none" fill-rule="evenodd">
        <g id="Create-trip-post" transform="translate(-516.000000, -257.000000)" fill="#FFFFFF">
            <g id="Creat-a-post" transform="translate(400.000000, 112.000000)">
                <g id="Bitmap" transform="translate(80.000000, 141.000000)">
                    <path d="M40,7.3334119 L36.9998821,4.33329405 C36.8158089,4.14922083 36.5173673,4.14922083 36.333294,4.33329405 C36.1492208,4.51736727 36.1492208,4.81580892 36.333294,4.99988214 L39.3334119,8 L39.3334119,8 L36.333294,11.0001179 C36.1492208,11.1841911 36.1492208,11.4826327 36.333294,11.666706 C36.5173673,11.8507792 36.8158089,11.8507792 36.9998821,11.666706 L40,8.6665881 L40,8.6665881 L43.0001179,11.666706 C43.1841911,11.8507792 43.4826327,11.8507792 43.666706,11.666706 C43.8507792,11.4826327 43.8507792,11.1841911 43.666706,11.0001179 L40.6665881,8 L40.6665881,8 L43.666706,4.99988214 C43.8507792,4.81580892 43.8507792,4.51736727 43.666706,4.33329405 C43.4826327,4.14922083 43.1841911,4.14922083 43.0001179,4.33329405 L40,7.3334119 L40,7.3334119 Z" id="Path"></path>
                </g>
            </g>
        </g>
    </g>
</svg>