<?xml version="1.0" encoding="UTF-8"?>
<svg width="19.009" height="19.009" viewBox="0 0 19.009 19.009" version="1.1" xmlns="http://www.w3.org/2000/svg" xmlns:xlink="http://www.w3.org/1999/xlink">
<title>Close</title>
<path d="M10,8.334,2.5.833a1.2,1.2,0,0,0-1.666,0h0a1.2,1.2,0,0,0,0,1.666l7.5,7.5-7.5,7.5a1.2,1.2,0,0,0,0,1.666h0a1.2,1.2,0,0,0,1.666,0l7.5-7.5,7.5,7.5a1.2,1.2,0,0,0,1.666,0h0a1.2,1.2,0,0,0,0-1.666l-7.5-7.5,7.5-7.5a1.2,1.2,0,0,0,0-1.666h0a1.2,1.2,0,0,0-1.666,0Z" transform="translate(-0.496 -0.496)" fill="#e83f3f"/></svg>