<svg xmlns="http://www.w3.org/2000/svg" xmlns:xlink="http://www.w3.org/1999/xlink" width="24" height="24" viewBox="0 0 24 24">
  <g id="Mask_Group_3160">
    <g id="placeholder" transform="translate(0 2.278)">
      <path id="Path_30571" data-name="Path 30571" d="M2.272,16.541,0,21.722H6.047l1.614-5.511a17.349,17.349,0,0,0-5.388.33Z" transform="translate(0 -2.278)" fill="#e83f3f"/>
      <path id="Path_30572" data-name="Path 30572" d="M6.486,14.635a15.9,15.9,0,0,1,1.6.113l.755-2.576H4.187L3,14.872a20.118,20.118,0,0,1,3.482-.237Z" transform="translate(0 -2.278)" fill="#e83f3f"/>
      <path id="Path_30573" data-name="Path 30573" d="M15.04,17.847l-.768-2.479a35.658,35.658,0,0,1-2.726-3.2h-1.14l-.835,2.851A6.809,6.809,0,0,1,12.779,16.7,4.459,4.459,0,0,0,15.04,17.847Z" transform="translate(0 -2.278)" fill="#e83f3f"/>
      <path id="Path_30574" data-name="Path 30574" d="M11.721,17.761a5.443,5.443,0,0,0-2.571-1.3L7.61,21.722H16.24l-.708-2.288A6.267,6.267,0,0,1,11.721,17.761Z" transform="translate(0 -2.278)" fill="#e83f3f"/>
      <path id="Path_30575" data-name="Path 30575" d="M19.889,12.345q-.313.414-.667.847a36.644,36.644,0,0,1-3.037,3.282l.461,1.487h5.705Z" transform="translate(0 -2.278)" fill="#e83f3f"/>
      <path id="Path_30576" data-name="Path 30576" d="M23.009,19.462h-5.9l.7,2.26H24Z" transform="translate(0 -2.278)" fill="#e83f3f"/>
      <path id="Path_30577" data-name="Path 30577" d="M15.783,7.762a.874.874,0,1,0-.874-.874A.875.875,0,0,0,15.783,7.762Z" transform="translate(0 -2.278)" fill="#e83f3f"/>
      <path id="Path_30578" data-name="Path 30578" d="M13.5,12.243c.819,1,1.486,1.718,2.278,2.524C17.47,13.143,20.87,9.06,20.75,7.246a4.967,4.967,0,1,0-9.935,0c-.018,1.075,1.006,2.95,2.69,5Zm-.1-5.355a2.374,2.374,0,1,1,2.374,2.374A2.376,2.376,0,0,1,13.409,6.888Z" transform="translate(0 -2.278)" fill="#e83f3f"/>
    </g>
  </g>
</svg>
