<svg xmlns="http://www.w3.org/2000/svg" xmlns:xlink="http://www.w3.org/1999/xlink" width="24" height="24" viewBox="0 0 24 24">  
  <g id="Mask_Group_3159" data-name="Mask Group 3159" transform="translate(0 0.042)">
    <g id="motorbike" transform="translate(0 -0.042)">
      <path id="Path_30569" data-name="Path 30569" d="M20.484,11.648a3.5,3.5,0,0,0-1.014.15l-.838-1.556h.445a.7.7,0,0,0,.7-.7V6.727a.7.7,0,0,0-.986-.644l-1.942.854L16.182,5.69a.7.7,0,0,0-.619-.37H12.75a.7.7,0,0,0-.5.206L10.847,6.933a.7.7,0,0,0,.994.994l1.2-1.2h2.1l.42.78V8.855a12.231,12.231,0,0,0-4.219,1v4.611h2.109a3.5,3.5,0,0,0,1.311-.254,3.068,3.068,0,0,1-2.717,1.661H7.828a.7.7,0,1,0,0,1.406h4.219c3.212,0,4.922-3.082,4.922-6.328v-.7h.067l1.2,2.224a3.513,3.513,0,1,0,2.251-.818Zm0,5.625a2.108,2.108,0,0,1-1.561-3.526l.942,1.75a.7.7,0,1,0,1.238-.667l-.943-1.751a2.109,2.109,0,1,1,.324,4.194Z" fill="#f1472f"/>
      <path id="Path_30570" data-name="Path 30570" d="M9.937,14.461V10.484c-1.258.569-2,.776-3.161-.082A6.961,6.961,0,0,0,2.109,8.836a.7.7,0,1,0,0,1.406,5.838,5.838,0,0,1,3.516,1.031v1.08a3.507,3.507,0,1,0,1.336,2.107ZM3.516,17.273a2.109,2.109,0,1,1,2.109-2.109A2.112,2.112,0,0,1,3.516,17.273Z" fill="#f1472f"/>
      <circle id="Ellipse_26" data-name="Ellipse 26" cx="0.703" cy="0.703" r="0.703" transform="translate(2.812 14.461)" fill="#f1472f"/>
    </g>
  </g>
</svg>
