<?xml version="1.0" encoding="utf-8"?>
<!-- Generator: Adobe Illustrator 23.0.0, SVG Export Plug-In . SVG Version: 6.00 Build 0)  -->
<svg version="1.1" id="Layer_1" xmlns="http://www.w3.org/2000/svg" xmlns:xlink="http://www.w3.org/1999/xlink" x="0px" y="0px"
	 width="22px" height="25px" viewBox="0 0 22 25" style="enable-background:new 0 0 22 25;" xml:space="preserve">
<style type="text/css">
	.st0{fill:#E83F3F;}
</style>
<path id="Shape" class="st0" d="M16.8,19.2l3,3.6c0.4,0.5,0.4,1.3,0,1.8c-0.4,0.5-1.1,0.5-1.6,0l-2.8-3.3c-0.9,1-2.1,1.7-3.4,1.9
	V11.7c0-0.7-0.5-1.3-1.1-1.3S9.9,11,9.9,11.7v11.6c-1.3-0.3-2.4-0.9-3.4-1.9l-2.8,3.3c-0.4,0.5-1.1,0.5-1.6,0
	c-0.4-0.5-0.4-1.3,0-1.8l3-3.6c-0.3-0.8-0.6-1.6-0.7-2.4H1.1c-0.6,0-1.1-0.6-1.1-1.3c0-0.7,0.5-1.3,1.1-1.3h3.3v-3.3L1,6.9
	C0.6,6.4,0.6,5.6,1,5.1c0.4-0.5,1.1-0.5,1.6,0l2.3,2.7h12.2l2.3-2.7c0.4-0.5,1.1-0.5,1.6,0c0.4,0.5,0.4,1.3,0,1.8l-3.4,4v3.3h3.3
	c0.6,0,1.1,0.6,1.1,1.3c0,0.7-0.5,1.3-1.1,1.3h-3.4C17.4,17.7,17.2,18.5,16.8,19.2z M16.5,6.5h-11C5.5,2.9,8,0,11,0
	S16.5,2.9,16.5,6.5L16.5,6.5z"/>
</svg>
