<?xml version="1.0" encoding="UTF-8"?>
<svg width="30px" height="14px" viewBox="0 0 30 14" version="1.1" xmlns="http://www.w3.org/2000/svg" xmlns:xlink="http://www.w3.org/1999/xlink">
    <title>Group</title>
    <g id="Platform" stroke="none" stroke-width="1" fill="none" fill-rule="evenodd">
        <g id="Other-User-profile---bikes-" transform="translate(-854.000000, -205.000000)" fill="#E83F3F" fill-rule="nonzero">
            <g id="Group" transform="translate(854.000000, 205.000000)">
                <g id="user-add-copy">
                    <polygon id="Shape" points="2 2 0 2 0 4 2 4 2 6 4 6 4 4 6 4 6 2 4 2 4 -2.27318164e-13 2 -2.27318164e-13"></polygon>
                </g>
                <path d="M24.44,4.03 L20.41,0 L17,0 C16.4477153,1.01453063e-16 16,0.44771525 16,1 C16,1.55228475 16.4477153,2 17,2 L19.59,2 L19.59,2 L21.59,4 L10,4 C7.2,4 5,6.2 5,9 C5,11.8 7.2,14 10,14 C12.46,14 14.45,12.31 14.9,10 L16.55,10 L19.32,7.23 C19.11,7.77 19,8.37 19,9 C19,11.8 21.2,14 24,14 C26.8,14 29,11.8 29,9 C29,6.35 27.03,4.23 24.44,4.03 Z M12.82,10 C12.4,11.15 11.28,12 10,12 C8.37,12 7,10.63 7,9 C7,7.37 8.37,6 10,6 C11.28,6 12.4,6.85 12.82,8 L10,8 C9.44771525,8 9,8.44771525 9,9 C9,9.55228475 9.44771525,10 10,10 L12.82,10 L12.82,10 Z M24,12 C22.34,12 21,10.66 21,9 C21,7.34 22.34,6 24,6 C25.66,6 27,7.34 27,9 C27,10.66 25.66,12 24,12 Z" id="Shape-Copy"></path>
            </g>
        </g>
    </g>
</svg>