<svg xmlns="http://www.w3.org/2000/svg" xmlns:xlink="http://www.w3.org/1999/xlink" width="36" height="36" viewBox="0 0 36 36"><g transform="translate(16 -212)"><g transform="translate(-16 212)"><path d="M24.079,25.14,1.509,35.9A1.054,1.054,0,0,1,.1,34.5L10.857,11.367a1.055,1.055,0,0,1,1.719-.283L24.389,23.459A1.055,1.055,0,0,1,24.079,25.14Z" fill="#ffdd54"/><path d="M24.389,23.459a1.055,1.055,0,0,1-.309,1.68L1.509,35.9a1.055,1.055,0,0,1-1.2-.206L18.6,17.4Z" fill="#ffb454"/><path d="M24.68,23.625v.563a1.055,1.055,0,0,1-1.055,1.055A12.882,12.882,0,0,1,10.758,12.375v-.563a1.055,1.055,0,0,1,1.055-1.055A12.881,12.881,0,0,1,24.68,23.625Z" fill="#ffb454"/><path d="M24.68,23.625v.563a1.055,1.055,0,0,1-1.055,1.055,12.826,12.826,0,0,1-9.094-3.773l6.653-6.653A12.82,12.82,0,0,1,24.68,23.625Z" fill="#ff8659"/><path d="M10.618,26.438a1.055,1.055,0,1,1-.951-1.05A1.058,1.058,0,0,1,10.618,26.438Z" fill="#acceff"/><path d="M10.613,26.333a1.056,1.056,0,0,1-1.8.85l1.492-1.492A1.068,1.068,0,0,1,10.613,26.333Z" fill="#989dec"/><path d="M11.251,22.43a1.055,1.055,0,1,1,1.05-.951A1.057,1.057,0,0,1,11.251,22.43Z" fill="#ff5e90"/><path d="M14.063,25.8a1.055,1.055,0,1,1,1.05-.951A1.057,1.057,0,0,1,14.063,25.8Z" fill="#00a763"/><path d="M20.4.081a1.055,1.055,0,0,0-1.193.895L18.9,3.153c0,.009.032-.043-.469.709a1.264,1.264,0,0,1-.772.147,3.107,3.107,0,0,0-2.883,4.259,1.055,1.055,0,1,0,1.958-.783,1,1,0,0,1,.925-1.366h.255a3.121,3.121,0,0,0,3.074-2.666l.311-2.177A1.055,1.055,0,0,0,20.4.081Z" fill="#ff5e90"/><path d="M35.9,9.869A1.055,1.055,0,0,0,34.62,9.1l-.844.211a2.906,2.906,0,0,0-2.2,2.824V13.29a.8.8,0,0,1-1.021.77,2.916,2.916,0,0,0-3.475,1.652l-1.044,2.435a1.055,1.055,0,1,0,1.939.831l1.044-2.435a.8.8,0,0,1,.957-.455,2.909,2.909,0,0,0,3.71-2.8V12.136a.8.8,0,0,1,.607-.777l.844-.211A1.055,1.055,0,0,0,35.9,9.869Z" fill="#00a763"/><path d="M24.751,2.742a1.055,1.055,0,1,1,1.05-.951,1.058,1.058,0,0,1-1.05.951Z" fill="#ff5e90"/><path d="M19.126,10.617a1.055,1.055,0,1,1,1.05-.951,1.057,1.057,0,0,1-1.05.951Z" fill="#ffdd54"/><path d="M14.626,2.18a1.055,1.055,0,1,1,1.05-.951A1.058,1.058,0,0,1,14.626,2.18Z" fill="#ace233"/><path d="M27,12.3a1.055,1.055,0,1,1,1.05-.951A1.058,1.058,0,0,1,27,12.3Z" fill="#00a763"/><path d="M33.188,7.242a1.055,1.055,0,1,1,1.05-.951,1.058,1.058,0,0,1-1.05.951Z" fill="#ffb454"/><path d="M30.938,21.3a1.055,1.055,0,1,1,1.05-.951,1.058,1.058,0,0,1-1.05.951Z" fill="#d01273"/><path d="M35.1,2.1l-3.052.444a1.8,1.8,0,0,0-1.41.986L29.3,6.2a3.892,3.892,0,0,1-3.5,2.163,1.8,1.8,0,0,0-1.785,2.059l.1.675a1.055,1.055,0,0,1-2.088.3l-.1-.675A3.914,3.914,0,0,1,25.8,6.258a1.794,1.794,0,0,0,1.614-1l1.338-2.677a3.906,3.906,0,0,1,3-2.131L34.795.011A1.054,1.054,0,0,1,35.1,2.1Z" fill="#acceff"/></g></g></svg>