<svg xmlns="http://www.w3.org/2000/svg" width="80.338" height="95.044" viewBox="0 0 80.338 95.044"><g transform="translate(-39.592)"><path d="M60.348,221.248,39.592,260.353l18.848-1.741L67.563,275.2l20.756-39.105Z" transform="translate(0 -180.158)" fill="#e95454"/><g transform="translate(56.739 41.09)"><path d="M137.906,291.644a2.65,2.65,0,0,0-1.245-3.393l-1.195-.636a2.554,2.554,0,0,1,2.457-4.478l3.376,1.792a2.131,2.131,0,0,0,2.888-.9l.083-.16a2.015,2.015,0,0,0-.776-2.841l-10.1-5.358a2.658,2.658,0,0,1-1.26-3.4,2.561,2.561,0,0,1,3.518-1.177l9.366,4.971a2.155,2.155,0,0,0,2.9-.891l.053-.137.015-.03a2.243,2.243,0,0,0-.924-3.052l-5.254-2.787a2.658,2.658,0,0,1-1.251-3.411,2.571,2.571,0,0,1,3.518-1.177l5.8,3.081a2.167,2.167,0,0,0,2.942-1,80.822,80.822,0,0,0,.03-.059,2.164,2.164,0,0,0-.823-3l-6.261-3.322a2.652,2.652,0,0,1-1.245-3.388,2.561,2.561,0,0,1,3.518-1.177l15.446,8.2-20.756,39.105-5.72-10.4A2.431,2.431,0,0,0,137.906,291.644Z" transform="translate(-131.92 -249.08)" fill="#ed6362"/><path d="M237.771,221.248l20.756,39.105-18.848-1.741L230.556,275.2,209.8,236.094Z" transform="translate(-195.336 -221.248)" fill="#ed6362"/></g><path d="M235.407,291.657a2.65,2.65,0,0,1,1.245-3.393l1.195-.636a2.554,2.554,0,0,0-2.457-4.478l-3.376,1.792a2.131,2.131,0,0,1-2.888-.9l-.083-.16a2.015,2.015,0,0,1,.776-2.841l10.1-5.361a2.658,2.658,0,0,0,1.26-3.4,2.561,2.561,0,0,0-3.518-1.177l-9.366,4.971a2.155,2.155,0,0,1-2.9-.891l-.053-.137-.015-.03a2.243,2.243,0,0,1,.924-3.052l5.254-2.787a2.658,2.658,0,0,0,1.251-3.411,2.571,2.571,0,0,0-3.518-1.177l-5.809,3.087a2.167,2.167,0,0,1-2.942-1,.139.139,0,0,1-.015-.03.138.138,0,0,1-.015-.03,2.164,2.164,0,0,1,.823-3l6.261-3.322a2.652,2.652,0,0,0,1.245-3.388,2.561,2.561,0,0,0-3.518-1.177l-15.446,8.2,20.756,39.105,5.72-10.4A2.473,2.473,0,0,1,235.407,291.657Z" transform="translate(-138.61 -208.003)" fill="#e95454"/><circle cx="34.68" cy="34.68" r="34.68" transform="translate(45.08 0)" fill="#ffcc5b"/><path d="M147.34,102.948A24.754,24.754,0,1,1,172.1,78.2,24.785,24.785,0,0,1,147.34,102.948Z" transform="translate(-67.579 -43.515)" fill="#ffdb70"/><g transform="translate(58.28 16.114)"><path d="M149.769,115.134a3.2,3.2,0,0,0-.8,1.221,3.39,3.39,0,0,0-.264,1.45c.036.532.253,1.117.282,1.643.006.068-.012.134-.009.2a24.844,24.844,0,0,1-2.555-4.175,2.429,2.429,0,0,1,.169-.82,8.891,8.891,0,0,1,.77-1.138,4.3,4.3,0,0,0,.44-1.29,5.221,5.221,0,0,0,.116-1.474c-.042-.027-.086-.053-.128-.083a3.006,3.006,0,0,0-1.016.927,3.09,3.09,0,0,0-.559,1.254c-.077.49,0,1.07-.086,1.548a2.657,2.657,0,0,1-.08.261,25.124,25.124,0,0,1-1.495-4.5,2.429,2.429,0,0,1,.371-.886,7.941,7.941,0,0,1,.963-.85,3.647,3.647,0,0,0,.666-1.082,4.49,4.49,0,0,0,.38-1.346l-.107-.107a2.707,2.707,0,0,0-1.138.615,2.759,2.759,0,0,0-.773,1.022c-.169.431-.208.984-.386,1.4a2.142,2.142,0,0,1-.175.3,25.328,25.328,0,0,1-.452-4.615,2.38,2.38,0,0,1,.609-.918,7.381,7.381,0,0,1,1.067-.55,3.141,3.141,0,0,0,.826-.853,4.087,4.087,0,0,0,.6-1.189l-.08-.131a2.688,2.688,0,0,0-2.092,1.079c-.241.365-.377.874-.624,1.218a1.888,1.888,0,0,1-.288.306,25.787,25.787,0,0,1,.562-4.514l.045-.068a2.322,2.322,0,0,1,.844-.853,6.685,6.685,0,0,1,1.091-.253,2.633,2.633,0,0,0,.924-.618,3.8,3.8,0,0,0,.779-1.01c-.018-.048-.033-.1-.051-.149a2.16,2.16,0,0,0-1.144.006,2.125,2.125,0,0,0-.99.523c-.291.294-.517.749-.811,1.01a1.775,1.775,0,0,1-.413.279,25.54,25.54,0,0,1,1.59-4.347c.012.018.027.033.039.051.056-.059.116-.116.172-.175a2.087,2.087,0,0,1,.942-.615,6.088,6.088,0,0,1,1.04.021,2.286,2.286,0,0,0,.969-.386,3.606,3.606,0,0,0,.924-.82c0-.053-.009-.107-.012-.157a1.877,1.877,0,0,0-1.04-.261,1.853,1.853,0,0,0-1.01.279c-.327.22-.63.609-.951.793a1.512,1.512,0,0,1-.49.19c.006-.033.006-.062.012-.1a25.469,25.469,0,0,1,4.13-5.637,25.915,25.915,0,0,0-4.041,5.016c0-.053.027-.116.027-.169a6.879,6.879,0,0,0,.009-1.132,3.659,3.659,0,0,0-.835-1.976l-.169.062a5.137,5.137,0,0,0-.707,2.627,4,4,0,0,0,.226,1.07,2.749,2.749,0,0,0,.481.936c.03.042.059.08.092.122a25.566,25.566,0,0,0-1.6,3.744c0-.012,0-.027,0-.042a10.491,10.491,0,0,0-.3-1.168,4.375,4.375,0,0,0-1.319-1.9l-.149.1a5.547,5.547,0,0,0-.027,2.868,4.512,4.512,0,0,0,.5,1.067,3.231,3.231,0,0,0,.722.88.168.168,0,0,1,.024.021,25.932,25.932,0,0,0-.689,3.869,9.652,9.652,0,0,0-.568-1.105,5.179,5.179,0,0,0-1.8-1.732c-.042.042-.083.083-.125.128a6.09,6.09,0,0,0,.7,2.966,5.183,5.183,0,0,0,.781,1,3.611,3.611,0,0,0,.883.707,26.262,26.262,0,0,0,.184,3.863,11.125,11.125,0,0,0-.805-.957,6.206,6.206,0,0,0-2.255-1.453c-.033.051-.062.1-.1.152a6.65,6.65,0,0,0,1.462,2.9,5.7,5.7,0,0,0,1.055.877,3.821,3.821,0,0,0,.969.493,26.114,26.114,0,0,0,1.04,3.711c-.336-.267-.666-.541-1.013-.77a7.207,7.207,0,0,0-2.683-1.061c-.021.056-.039.113-.059.169a7.361,7.361,0,0,0,2.241,2.674,6.463,6.463,0,0,0,1.316.683,4.233,4.233,0,0,0,1.007.276,25.9,25.9,0,0,0,1.884,3.411c-.4-.19-.793-.392-1.192-.541a8.652,8.652,0,0,0-3.058-.565l-.018.184a8.23,8.23,0,0,0,3.019,2.267,7.457,7.457,0,0,0,1.557.425,4.8,4.8,0,0,0,1.007.065,26.732,26.732,0,0,0,1.8,2.068l1.019-1.019a25.643,25.643,0,0,1-2.062-2.243,2.671,2.671,0,0,1-.009-.737,8.9,8.9,0,0,1,.481-1.388,5.17,5.17,0,0,0,.134-1.459,6.034,6.034,0,0,0-.208-1.56A1.159,1.159,0,0,0,149.769,115.134Z" transform="translate(-140.216 -86.768)" fill="#ed6362"/><path d="M312.222,115.16a3.2,3.2,0,0,1,.8,1.221,3.39,3.39,0,0,1,.264,1.45c-.036.532-.253,1.117-.282,1.643-.006.068.012.134.009.2a24.843,24.843,0,0,0,2.556-4.175,2.429,2.429,0,0,0-.169-.82,8.889,8.889,0,0,0-.77-1.138,4.3,4.3,0,0,1-.44-1.29,5.22,5.22,0,0,1-.116-1.474c.042-.027.086-.053.128-.083a3.006,3.006,0,0,1,1.016.927,3.09,3.09,0,0,1,.559,1.254c.077.49,0,1.07.086,1.548a2.649,2.649,0,0,0,.08.261,25.124,25.124,0,0,0,1.495-4.5,2.429,2.429,0,0,0-.371-.886,7.945,7.945,0,0,0-.963-.85,3.647,3.647,0,0,1-.666-1.082,4.49,4.49,0,0,1-.38-1.346l.107-.107a2.707,2.707,0,0,1,1.138.615,2.759,2.759,0,0,1,.773,1.022c.169.431.208.984.386,1.4a2.142,2.142,0,0,0,.175.3,25.325,25.325,0,0,0,.452-4.615,2.38,2.38,0,0,0-.609-.918,7.38,7.38,0,0,0-1.067-.55,3.141,3.141,0,0,1-.826-.853,4.087,4.087,0,0,1-.6-1.189c.027-.045.053-.086.08-.131a2.688,2.688,0,0,1,2.092,1.079c.241.365.377.874.624,1.218a1.887,1.887,0,0,0,.288.306,25.785,25.785,0,0,0-.562-4.514l-.045-.068a2.322,2.322,0,0,0-.844-.853,6.684,6.684,0,0,0-1.091-.253,2.633,2.633,0,0,1-.924-.618,3.794,3.794,0,0,1-.779-1.01c.018-.048.033-.1.051-.149a2.16,2.16,0,0,1,1.144.006,2.125,2.125,0,0,1,.99.523c.291.294.517.749.811,1.01a1.774,1.774,0,0,0,.413.279,24.832,24.832,0,0,0-1.584-4.344c-.012.018-.027.033-.039.051-.056-.059-.116-.116-.172-.175a2.087,2.087,0,0,0-.942-.615,6.088,6.088,0,0,0-1.04.021,2.286,2.286,0,0,1-.969-.386,3.606,3.606,0,0,1-.924-.82c0-.053.009-.107.012-.157a1.877,1.877,0,0,1,1.04-.261,1.853,1.853,0,0,1,1.01.279c.327.22.63.609.951.793a1.512,1.512,0,0,0,.49.19c-.006-.03-.009-.062-.012-.092a25.468,25.468,0,0,0-4.13-5.637,25.914,25.914,0,0,1,4.041,5.016c0-.053-.027-.116-.027-.169a6.874,6.874,0,0,1-.009-1.132,3.658,3.658,0,0,1,.835-1.976l.169.062a5.137,5.137,0,0,1,.707,2.627,4,4,0,0,1-.226,1.07,2.749,2.749,0,0,1-.481.936c-.03.042-.059.08-.092.122a25.565,25.565,0,0,1,1.6,3.744c0-.012,0-.027,0-.042a9.16,9.16,0,0,1,.291-1.174,4.375,4.375,0,0,1,1.319-1.9c.051.033.1.062.152.1a5.583,5.583,0,0,1,.03,2.868,4.511,4.511,0,0,1-.5,1.067,3.231,3.231,0,0,1-.722.88.171.171,0,0,0-.024.021,25.932,25.932,0,0,1,.689,3.869,9.652,9.652,0,0,1,.568-1.105,5.179,5.179,0,0,1,1.8-1.732l.125.125a6.09,6.09,0,0,1-.7,2.966,5.184,5.184,0,0,1-.781,1,3.611,3.611,0,0,1-.883.707,26.26,26.26,0,0,1-.184,3.863,11.125,11.125,0,0,1,.805-.957,6.207,6.207,0,0,1,2.255-1.453c.033.051.062.1.1.152a6.65,6.65,0,0,1-1.462,2.9,5.7,5.7,0,0,1-1.055.877,3.821,3.821,0,0,1-.969.493,26.113,26.113,0,0,1-1.04,3.711c.336-.267.666-.541,1.013-.77a7.207,7.207,0,0,1,2.683-1.061c.021.056.039.113.059.169a7.361,7.361,0,0,1-2.241,2.674,6.463,6.463,0,0,1-1.316.683,4.232,4.232,0,0,1-1.007.276,25.9,25.9,0,0,1-1.884,3.411c.4-.19.793-.392,1.192-.541a8.653,8.653,0,0,1,3.058-.565l.018.184a8.23,8.23,0,0,1-3.019,2.267,7.457,7.457,0,0,1-1.557.425,4.8,4.8,0,0,1-1.007.065,26.735,26.735,0,0,1-1.8,2.068l-1.019-1.019a25.643,25.643,0,0,0,2.062-2.243,2.671,2.671,0,0,0,.009-.737,8.906,8.906,0,0,0-.481-1.388,5.17,5.17,0,0,1-.134-1.459,6.034,6.034,0,0,1,.208-1.56C312.127,115.2,312.174,115.178,312.222,115.16Z" transform="translate(-278.813 -86.794)" fill="#ed6362"/></g><path d="M223.678,98.464a11.558,11.558,0,0,1-3.943,5.224,20.416,20.416,0,0,1-2.8,1.822v5.72a20.608,20.608,0,0,0,5.56-3.569v23.585h6.258V98.464Z" transform="translate(-144.408 -80.177)" fill="#e95454"/></g></svg>