<svg xmlns="http://www.w3.org/2000/svg" width="50" height="59.153" viewBox="0 0 50 59.153"><g transform="translate(-39.592)"><path d="M52.51,221.248,39.592,245.586,51.323,244.5,57,254.825l12.918-24.338Z" transform="translate(0 -195.675)" fill="#e95454"/><g transform="translate(50.264 25.573)"><path d="M135.646,277.968a1.649,1.649,0,0,0-.775-2.112l-.743-.4a1.59,1.59,0,0,1,1.529-2.787l2.1,1.115a1.326,1.326,0,0,0,1.8-.559l.052-.1a1.254,1.254,0,0,0-.483-1.768l-6.284-3.334a1.655,1.655,0,0,1-.784-2.114,1.594,1.594,0,0,1,2.19-.732l5.829,3.094a1.341,1.341,0,0,0,1.807-.555l.033-.085.009-.018a1.4,1.4,0,0,0-.575-1.9l-3.27-1.735a1.654,1.654,0,0,1-.779-2.123,1.6,1.6,0,0,1,2.19-.732l3.612,1.918a1.349,1.349,0,0,0,1.831-.621.086.086,0,0,0,.009-.018.087.087,0,0,0,.009-.018,1.347,1.347,0,0,0-.512-1.864l-3.9-2.068a1.651,1.651,0,0,1-.775-2.108,1.594,1.594,0,0,1,2.19-.732l9.613,5.1-12.918,24.338-3.56-6.471A1.513,1.513,0,0,0,135.646,277.968Z" transform="translate(-131.92 -251.477)" fill="#ed6362"/><path d="M227.208,221.248l12.918,24.338L228.4,244.5l-5.678,10.323L209.8,230.488Z" transform="translate(-200.798 -221.248)" fill="#ed6362"/></g><path d="M225.743,277.982a1.649,1.649,0,0,1,.775-2.112l.743-.4a1.59,1.59,0,0,0-1.529-2.787l-2.1,1.115a1.326,1.326,0,0,1-1.8-.559l-.052-.1a1.254,1.254,0,0,1,.483-1.768l6.286-3.336a1.655,1.655,0,0,0,.784-2.114,1.594,1.594,0,0,0-2.19-.732l-5.829,3.094a1.341,1.341,0,0,1-1.807-.555l-.033-.085-.009-.018a1.4,1.4,0,0,1,.575-1.9l3.27-1.735a1.654,1.654,0,0,0,.779-2.123,1.6,1.6,0,0,0-2.19-.732l-3.616,1.922a1.349,1.349,0,0,1-1.831-.621,15.662,15.662,0,0,1-.018-.037,1.347,1.347,0,0,1,.512-1.864l3.9-2.068a1.651,1.651,0,0,0,.775-2.108,1.594,1.594,0,0,0-2.19-.732l-9.613,5.1,12.918,24.338,3.56-6.471A1.539,1.539,0,0,1,225.743,277.982Z" transform="translate(-150.548 -225.918)" fill="#e95454"/><circle cx="21.584" cy="21.584" r="21.584" transform="translate(43.008 0)" fill="#ffcc5b"/><path d="M137.991,84.253A15.406,15.406,0,1,1,153.4,68.847,15.425,15.425,0,0,1,137.991,84.253Z" transform="translate(-73.399 -47.263)" fill="#ffdb70"/><g transform="translate(51.223 10.029)"><path d="M146.162,104.422a1.994,1.994,0,0,0-.5.76,2.11,2.11,0,0,0-.165.9c.022.331.157.7.176,1.023,0,.043-.007.083-.006.124a15.461,15.461,0,0,1-1.59-2.6,1.512,1.512,0,0,1,.105-.51,5.533,5.533,0,0,1,.479-.708,2.676,2.676,0,0,0,.274-.8,3.25,3.25,0,0,0,.072-.917c-.026-.017-.054-.033-.08-.052a1.871,1.871,0,0,0-.632.577,1.923,1.923,0,0,0-.348.78c-.048.305,0,.666-.054.964a1.655,1.655,0,0,1-.05.163,15.636,15.636,0,0,1-.93-2.8,1.512,1.512,0,0,1,.231-.551,4.943,4.943,0,0,1,.6-.529,2.27,2.27,0,0,0,.414-.673,2.794,2.794,0,0,0,.237-.838l-.067-.067a1.684,1.684,0,0,0-.708.383,1.717,1.717,0,0,0-.481.636c-.105.268-.129.612-.24.871a1.334,1.334,0,0,1-.109.187,15.763,15.763,0,0,1-.281-2.872,1.481,1.481,0,0,1,.379-.571,4.6,4.6,0,0,1,.664-.342,1.955,1.955,0,0,0,.514-.531,2.543,2.543,0,0,0,.374-.74l-.05-.081a1.673,1.673,0,0,0-1.3.671c-.15.227-.235.544-.388.758a1.175,1.175,0,0,1-.179.19,16.051,16.051,0,0,1,.35-2.809l.028-.043a1.445,1.445,0,0,1,.525-.531,4.161,4.161,0,0,1,.679-.157,1.639,1.639,0,0,0,.575-.385,2.362,2.362,0,0,0,.485-.629c-.011-.03-.02-.061-.031-.092a1.344,1.344,0,0,0-.712,0,1.322,1.322,0,0,0-.616.325c-.181.183-.322.466-.5.629a1.1,1.1,0,0,1-.257.174,15.894,15.894,0,0,1,.989-2.706c.007.011.017.02.024.031.035-.037.072-.072.107-.109a1.3,1.3,0,0,1,.586-.383,3.789,3.789,0,0,1,.647.013,1.422,1.422,0,0,0,.6-.24,2.244,2.244,0,0,0,.575-.51c0-.033-.006-.067-.007-.1a1.168,1.168,0,0,0-.647-.163,1.153,1.153,0,0,0-.629.174c-.2.137-.392.379-.592.494a.941.941,0,0,1-.305.118c0-.02,0-.039.007-.059a15.851,15.851,0,0,1,2.571-3.508,16.128,16.128,0,0,0-2.515,3.122c0-.033.017-.072.017-.105a4.281,4.281,0,0,0,.006-.7,2.277,2.277,0,0,0-.52-1.23l-.105.039a3.2,3.2,0,0,0-.44,1.635,2.493,2.493,0,0,0,.141.666,1.711,1.711,0,0,0,.3.583c.018.026.037.05.057.076a15.913,15.913,0,0,0-1,2.33c0-.007,0-.017,0-.026a6.531,6.531,0,0,0-.185-.727,2.723,2.723,0,0,0-.821-1.185l-.092.061a3.452,3.452,0,0,0-.017,1.785,2.808,2.808,0,0,0,.313.664,2.011,2.011,0,0,0,.449.547.1.1,0,0,1,.015.013,16.141,16.141,0,0,0-.429,2.408,6.007,6.007,0,0,0-.353-.688,3.223,3.223,0,0,0-1.119-1.078c-.026.026-.052.052-.078.08a3.791,3.791,0,0,0,.435,1.846,3.226,3.226,0,0,0,.486.625,2.248,2.248,0,0,0,.549.44,16.346,16.346,0,0,0,.115,2.4,6.918,6.918,0,0,0-.5-.6,3.863,3.863,0,0,0-1.4-.9l-.059.094a4.138,4.138,0,0,0,.91,1.807,3.547,3.547,0,0,0,.657.546,2.378,2.378,0,0,0,.6.307,16.252,16.252,0,0,0,.647,2.31c-.209-.166-.414-.337-.631-.479a4.486,4.486,0,0,0-1.67-.66c-.013.035-.024.07-.037.105a4.581,4.581,0,0,0,1.394,1.664,4.022,4.022,0,0,0,.819.425,2.634,2.634,0,0,0,.627.172,16.117,16.117,0,0,0,1.173,2.123c-.248-.118-.494-.244-.742-.337a5.385,5.385,0,0,0-1.9-.351l-.011.115a5.122,5.122,0,0,0,1.879,1.411,4.641,4.641,0,0,0,.969.264,2.988,2.988,0,0,0,.627.041,16.641,16.641,0,0,0,1.123,1.287l.634-.634a15.959,15.959,0,0,1-1.283-1.4A1.662,1.662,0,0,1,146,107.2a5.542,5.542,0,0,1,.3-.864,3.218,3.218,0,0,0,.083-.908,3.755,3.755,0,0,0-.129-.971A.72.72,0,0,0,146.162,104.422Z" transform="translate(-140.216 -86.768)" fill="#ed6362"/><path d="M311.543,104.451a1.994,1.994,0,0,1,.5.76,2.109,2.109,0,0,1,.165.9c-.022.331-.157.7-.176,1.023,0,.043.007.083.006.124a15.461,15.461,0,0,0,1.59-2.6,1.512,1.512,0,0,0-.105-.51,5.527,5.527,0,0,0-.479-.708,2.675,2.675,0,0,1-.274-.8,3.249,3.249,0,0,1-.072-.917c.026-.017.054-.033.08-.052a1.87,1.87,0,0,1,.632.577,1.923,1.923,0,0,1,.348.78c.048.305,0,.666.054.964a1.643,1.643,0,0,0,.05.163,15.638,15.638,0,0,0,.93-2.8,1.512,1.512,0,0,0-.231-.551,4.944,4.944,0,0,0-.6-.529,2.27,2.27,0,0,1-.414-.673,2.8,2.8,0,0,1-.237-.838l.067-.067a1.684,1.684,0,0,1,.708.383,1.717,1.717,0,0,1,.481.636c.105.268.129.612.24.871a1.334,1.334,0,0,0,.109.187,15.763,15.763,0,0,0,.281-2.872,1.481,1.481,0,0,0-.379-.571,4.594,4.594,0,0,0-.664-.342,1.954,1.954,0,0,1-.514-.531,2.544,2.544,0,0,1-.374-.74l.05-.081a1.673,1.673,0,0,1,1.3.671c.15.227.235.544.388.758a1.174,1.174,0,0,0,.179.19,16.046,16.046,0,0,0-.35-2.809l-.028-.043a1.446,1.446,0,0,0-.525-.531,4.159,4.159,0,0,0-.679-.157,1.639,1.639,0,0,1-.575-.385,2.361,2.361,0,0,1-.485-.629c.011-.03.02-.061.031-.092a1.344,1.344,0,0,1,.712,0,1.323,1.323,0,0,1,.616.325c.181.183.322.466.5.629a1.1,1.1,0,0,0,.257.174,15.456,15.456,0,0,0-.986-2.7c-.007.011-.017.02-.024.031-.035-.037-.072-.072-.107-.109a1.3,1.3,0,0,0-.586-.383,3.789,3.789,0,0,0-.647.013,1.423,1.423,0,0,1-.6-.24,2.244,2.244,0,0,1-.575-.51c0-.033.006-.067.007-.1a1.168,1.168,0,0,1,.647-.163,1.153,1.153,0,0,1,.629.174c.2.137.392.379.592.494a.941.941,0,0,0,.305.118c0-.018-.006-.039-.007-.057a15.85,15.85,0,0,0-2.571-3.508,16.128,16.128,0,0,1,2.515,3.122c0-.033-.017-.072-.017-.105a4.276,4.276,0,0,1-.006-.7,2.277,2.277,0,0,1,.52-1.23l.105.039a3.2,3.2,0,0,1,.44,1.635,2.493,2.493,0,0,1-.141.666,1.711,1.711,0,0,1-.3.583c-.018.026-.037.05-.057.076a15.913,15.913,0,0,1,1,2.33c0-.007,0-.017,0-.026a5.7,5.7,0,0,1,.181-.731,2.723,2.723,0,0,1,.821-1.185l.094.059a3.475,3.475,0,0,1,.018,1.785,2.808,2.808,0,0,1-.313.664,2.011,2.011,0,0,1-.449.547.109.109,0,0,0-.015.013,16.145,16.145,0,0,1,.429,2.408,6.007,6.007,0,0,1,.353-.688,3.223,3.223,0,0,1,1.119-1.078l.078.078a3.791,3.791,0,0,1-.435,1.846,3.227,3.227,0,0,1-.486.625,2.249,2.249,0,0,1-.549.44,16.346,16.346,0,0,1-.115,2.4,6.917,6.917,0,0,1,.5-.6,3.863,3.863,0,0,1,1.4-.9l.059.094a4.138,4.138,0,0,1-.91,1.807,3.549,3.549,0,0,1-.657.546,2.378,2.378,0,0,1-.6.307,16.253,16.253,0,0,1-.647,2.31c.209-.166.414-.337.631-.479a4.485,4.485,0,0,1,1.67-.66c.013.035.024.07.037.105a4.581,4.581,0,0,1-1.394,1.664,4.022,4.022,0,0,1-.819.425,2.634,2.634,0,0,1-.627.172A16.114,16.114,0,0,1,313,107.286c.248-.118.494-.244.742-.337a5.385,5.385,0,0,1,1.9-.351l.011.115a5.122,5.122,0,0,1-1.879,1.411,4.641,4.641,0,0,1-.969.264,2.987,2.987,0,0,1-.627.041,16.63,16.63,0,0,1-1.123,1.287l-.634-.634a15.954,15.954,0,0,0,1.283-1.4,1.659,1.659,0,0,0,.006-.459,5.539,5.539,0,0,0-.3-.864,3.217,3.217,0,0,1-.083-.908,3.756,3.756,0,0,1,.129-.971C311.484,104.473,311.513,104.462,311.543,104.451Z" transform="translate(-290.75 -86.796)" fill="#ed6362"/></g><text transform="translate(58.592 28)" fill="#e95454" font-size="18" font-family="SegoeUI-Bold, Segoe UI" font-weight="700"><tspan x="0" y="0">2</tspan></text></g></svg>