<svg xmlns="http://www.w3.org/2000/svg" xmlns:xlink="http://www.w3.org/1999/xlink" width="73" height="73" viewBox="0 0 73 73"><g transform="translate(-599 -1539)"><g transform="translate(599 1539)"><path d="M37.181,54.974a6.174,6.174,0,0,0-1.5.144v4.751a5.477,5.477,0,0,0,1.217.1c1.934,0,3.128-.98,3.128-2.627C40.022,55.858,39,54.974,37.181,54.974Z" fill="#f1472f"/><path d="M62.966,17.493a1.414,1.414,0,0,0-.34-.927L48.551.49s-.007-.006-.011-.01A1.431,1.431,0,0,0,48.256.24c-.031-.02-.061-.038-.094-.056A1.517,1.517,0,0,0,47.88.067c-.027-.008-.05-.019-.077-.026A1.443,1.443,0,0,0,47.474,0H12.882A2.867,2.867,0,0,0,10.02,2.863V70.137A2.866,2.866,0,0,0,12.882,73H60.117a2.865,2.865,0,0,0,2.863-2.863V17.654A1.567,1.567,0,0,0,62.966,17.493ZM29.232,67.7a18,18,0,0,1-5.372.907c-2.937,0-5.061-.739-6.542-2.172a7.787,7.787,0,0,1-2.269-5.848c.025-5.349,3.916-8.405,9.193-8.405a11.066,11.066,0,0,1,4.464.787l-.764,2.914a8.9,8.9,0,0,0-3.749-.694c-3.033,0-5.324,1.719-5.324,5.207,0,3.318,2.077,5.275,5.062,5.275a4.894,4.894,0,0,0,1.791-.238V62.066H23.239V59.224h5.994V67.7h0Zm12.915-6.638a7.455,7.455,0,0,1-5.229,1.7,9.081,9.081,0,0,1-1.241-.072v5.755H32.071V52.562a29.886,29.886,0,0,1,4.919-.334,7.716,7.716,0,0,1,4.918,1.29,4.7,4.7,0,0,1,1.719,3.724A5.14,5.14,0,0,1,42.147,61.062Zm11.6,7.379-1.457-2.913c-.6-1.122-.979-1.958-1.431-2.889h-.048c-.335.932-.74,1.768-1.242,2.889l-1.336,2.913H44.08L48.735,60.3l-4.488-7.95h4.179l1.408,2.938c.477.979.836,1.767,1.218,2.673H51.1c.383-1.026.693-1.744,1.1-2.673l1.361-2.938h4.155L53.176,60.2l4.775,8.237h-4.2ZM12.882,48.607V2.863H46.043V17.51a1.431,1.431,0,0,0,1.431,1.431H60.117V48.607Z" fill="#f1472f"/><path d="M50.788,32.543l-.687-2.6a26.97,26.97,0,0,0-6.628,2.6Z" fill="#f1472f"/><path d="M51.1,33.735H41.491a36.568,36.568,0,0,0-9.044,8.538H53.359Z" fill="#f1472f"/><path d="M35.741,22.732c-.347-.939-.728-1.967-1.1-2.992H22.707l-1.423,5.388H32.9A4.682,4.682,0,0,1,35.741,22.732Z" fill="#f1472f"/><path d="M38.382,33.735H19.011l-2.255,8.538H30.172A35.081,35.081,0,0,1,38.382,33.735Z" fill="#f1472f"/><path d="M49.768,28.679l-2.361-8.939h-5.1c-.415.993-.846,2.008-1.267,3,1.822.654,3.075,1.95,3.075,3.458,0,2.162-2.565,3.918-5.728,3.918-2.739,0-5.023-1.32-5.588-3.075H20.78l-1.455,5.5h20.83A28.7,28.7,0,0,1,49.768,28.679Z" fill="#f1472f"/><path d="M37.566,23.99c-1.366.238-2.378,1.043-2.378,2.007,0,1.151,1.431,2.081,3.194,2.081s3.193-.93,3.193-2.081c0-.969-1.02-1.777-2.4-2.01,1.266-2.949,3.528-8.247,3.981-9.591a4.851,4.851,0,1,0-9.155-.2C34.255,15.074,36.4,20.861,37.566,23.99ZM40.325,26c0,.7-.869,1.267-1.942,1.267S36.441,26.7,36.441,26c0-.582.6-1.067,1.419-1.215.277.737.454,1.215.454,1.215s.209-.483.531-1.229C39.693,24.906,40.325,25.4,40.325,26ZM38.62,9.618a3.1,3.1,0,1,1-3.1,3.1A3.1,3.1,0,0,1,38.62,9.618Z" fill="#f1472f"/></g></g></svg>