<?xml version="1.0" encoding="UTF-8"?>
<svg width="19" height="16" viewBox="0 0 19 16" version="1.1" xmlns="http://www.w3.org/2000/svg" xmlns:xlink="http://www.w3.org/1999/xlink">
    <title>Helmet</title>
    <g id="Platform" stroke="none" stroke-width="1" fill="none" fill-rule="evenodd">
        <g id="Search---Bikes" transform="translate(-687.000000, -191.000000)" fill="#e83f3f" fill-rule="nonzero">
            <g id="Creat-a-post" transform="translate(400.000000, 112.000000)">
                <g id="Selector" transform="translate(80.000000, 79.000000)">
                    <g id="Riders" transform="translate(207.000000, 0.000000)">
                        <path d="M10.0083929,0.00071428572 C12.2193571,0.00071428572 14.2979643,0.861714286 15.8613214,2.42507143 C17.1941429,3.75789286 18.00845,5.46569509 18.2295357,7.30978571 C18.3617918,8.41294241 18.2763275,9.48493051 17.9731429,10.52575 C17.787,11.1821786 17.5195,11.8148214 17.17475,12.4071429 C16.4698571,13.6181786 15.4601786,14.6365 14.2548571,15.3519286 L14.2548571,15.3519286 L14.1284286,15.4269643 L0.538571429,15.4269643 L7.35411732e-13,11.5980357 L8.88102451,11.5980357 C9.23107143,11.5980357 9.55563638,11.4150006 9.73675708,11.1154541 L9.73675708,11.1154541 L10.002,10.6757143 L10,10.6763635 L11.9370103,7.475678 C12.0029013,7.36680086 12.0474043,7.24634722 12.0681303,7.12078338 C12.1580753,6.57587207 11.7892522,6.06121935 11.2443409,5.97127436 L11.2443409,5.97127436 L2.59146429,4.543 C3.22214286,3.29296429 4.15603571,2.2275 5.32414286,1.43321429 C6.70235714,0.496071429 8.31178571,0.00071428572 9.97846429,0.00071428572 L9.97846429,0.00071428572 Z M2.15360714,5.55667857 L9.50943042,6.77083939 C9.63486953,6.79154452 9.75520979,6.8359796 9.86400362,6.9017639 C10.3366075,7.187533 10.4880671,7.80231581 10.202298,8.27491973 L10.202298,8.27491973 L9.13254484,10.0440736 C8.95142247,10.3436131 8.62686152,10.5266429 8.27681975,10.5266429 L8.27681975,10.5266429 L0.188857143,10.5266429 L2.15360714,5.55667857 Z" id="Combined-Shape"></path>
                    </g>
                </g>
            </g>
        </g>
    </g>
</svg>