<svg xmlns="http://www.w3.org/2000/svg" xmlns:xlink="http://www.w3.org/1999/xlink" width="20" height="20" viewBox="0 0 20 20"><g transform="translate(0 -0.209)"><g transform="translate(0 2.5)"><g transform="translate(0 1.667)"><path d="M10,4.167C4.866,4.167.291,9.5.1,9.731a.416.416,0,0,0,0,.538A20.856,20.856,0,0,0,4.32,13.913L6.932,11.3A3.332,3.332,0,0,1,11.3,6.932l2.147-2.147A10.178,10.178,0,0,0,10,4.167Z" transform="translate(0 -4.167)" fill="#e83f3f"/></g><g transform="translate(2.501)"><path d="M19.926,9.763a15.278,15.278,0,0,0-4.85-4.249l2.3-2.3a.417.417,0,1,0-.589-.589L2.623,16.788a.417.417,0,0,0,0,.589.413.413,0,0,0,.294.122.418.418,0,0,0,.295-.122l2.612-2.612A9.6,9.6,0,0,0,10,15.833c5.134,0,9.709-5.337,9.9-5.564A.418.418,0,0,0,19.926,9.763ZM10,13.333a3.3,3.3,0,0,1-2.033-.711l4.656-4.656A3.315,3.315,0,0,1,10,13.333Z" transform="translate(-2.501 -2.5)" fill="#e83f3f"/></g></g></g></svg>