<?xml version="1.0" encoding="UTF-8"?>
<svg width="58px" height="58px" viewBox="0 0 58 58" version="1.1" xmlns="http://www.w3.org/2000/svg" xmlns:xlink="http://www.w3.org/1999/xlink">
    <title>hollow-cut-instagram</title>
    <g id="Platform" stroke="none" stroke-width="1" fill="none" fill-rule="evenodd">
        <g id="About-page" transform="translate(-411.000000, -3360.000000)" fill="#BABECB" fill-rule="nonzero">
            <g id="hollow-cut-instagram" transform="translate(411.000000, 3360.000000)">
                <path d="M29.058,33.872 C31.436,33.872 33.582,31.9 33.698,29.464 C33.872,26.216 31.088,24.186 28.304,24.534 C26.274,24.824 24.766,26.216 24.36,28.246 C23.722,31.436 26.448,33.872 29.058,33.872 Z" id="Path"></path>
                <path d="M41.354,15.428 L37.7,15.428 C37.178,15.428 36.772,15.834 36.772,16.356 L36.772,20.01 C36.772,20.532 37.178,20.938 37.7,20.938 L41.354,20.938 C41.876,20.938 42.282,20.532 42.282,20.01 L42.282,16.356 C42.34,15.834 41.876,15.428 41.354,15.428 Z" id="Path"></path>
                <path d="M29,0 C12.992,0 0,12.992 0,29 C0,45.008 12.992,58 29,58 C45.008,58 58,45.008 58,29 C58,12.992 45.008,0 29,0 Z M45.298,37.816 C45.298,40.02 44.892,41.702 43.732,43.036 C42.688,44.196 41.296,45.182 39.324,45.356 C36.076,45.588 32.596,45.356 29.116,45.356 C25.81,45.356 22.272,45.588 18.908,45.356 C15.602,45.124 13.05,42.688 12.818,39.266 C12.47,34.742 13.05,29.406 12.818,24.534 C12.818,24.418 12.876,24.302 12.992,24.302 C16.066,24.302 19.082,24.302 22.156,24.302 C22.446,24.476 21.924,24.882 21.75,25.172 C21.112,26.332 20.648,28.072 20.822,29.986 C21.054,33.814 24.302,37.12 28.42,37.41 C31.436,37.642 33.872,36.192 35.38,34.336 C36.772,32.654 37.932,29.696 36.888,26.564 C36.772,26.158 36.54,25.752 36.308,25.404 C36.134,25.056 35.844,24.708 35.844,24.302 C38.976,24.302 42.05,24.302 45.182,24.302 C45.356,29.058 45.298,33.408 45.298,37.816 Z M22.62,29.29 C22.562,27.202 23.548,25.52 24.534,24.534 C25.52,23.548 26.738,22.91 28.652,22.794 C32.19,22.562 35.09,25.056 35.438,28.304 C35.786,31.9 33.292,35.09 30.044,35.496 C29.464,35.554 28.652,35.554 28.072,35.496 C25.23,35.206 22.678,32.596 22.62,29.29 Z M45.298,23.374 C42.688,23.374 40.31,23.374 37.642,23.374 C36.83,23.374 35.844,23.548 35.09,23.374 C34.626,23.258 34.394,22.794 33.988,22.504 C32.712,21.576 30.74,20.764 28.304,20.938 C26.506,21.054 25.288,21.692 24.128,22.62 C23.838,22.852 23.374,23.316 23.026,23.432 C22.33,23.606 21.286,23.432 20.416,23.432 C17.922,23.432 15.486,23.432 12.818,23.432 C12.934,21.518 12.586,19.662 12.876,18.038 C13.224,16.124 14.384,14.79 15.544,13.978 C15.544,16.24 15.544,20.764 15.544,20.764 L16.82,20.764 C16.82,20.764 16.704,15.544 16.878,13.166 C17.052,12.992 17.458,13.05 17.69,12.876 C17.864,15.312 17.864,20.764 17.864,20.764 L19.14,20.764 C19.14,20.764 19.14,15.544 19.14,12.934 C19.14,12.818 19.14,12.702 19.198,12.702 C19.488,12.702 19.72,12.702 20.01,12.702 C20.01,15.37 20.01,20.764 20.01,20.764 L21.344,20.764 C21.344,20.764 21.344,15.37 21.344,12.702 C26.796,12.992 33.814,12.354 39.15,12.702 C41.238,12.818 42.978,13.862 43.964,15.138 C45.414,16.994 45.356,19.72 45.298,23.374 Z" id="Shape"></path>
            </g>
        </g>
    </g>
</svg>