<?xml version="1.0" encoding="UTF-8"?>
<svg width="58px" height="58px" viewBox="0 0 58 58" version="1.1" xmlns="http://www.w3.org/2000/svg" xmlns:xlink="http://www.w3.org/1999/xlink">
    <title>hollow-cut-linkedin</title>
    <g id="Platform" stroke="none" stroke-width="1" fill="none" fill-rule="evenodd">
        <g id="About-page" transform="translate(-339.000000, -3360.000000)" fill="#BABECB" fill-rule="nonzero">
            <g id="hollow-cut-linkedin" transform="translate(339.000000, 3360.000000)">
                <path d="M29,0 C12.992,0 0,12.992 0,29 C0,45.008 12.992,58 29,58 C45.008,58 58,45.008 58,29 C58,12.992 45.008,0 29,0 Z M20.88,43.674 C18.85,43.674 16.82,43.674 14.79,43.674 C14.79,37.178 14.79,30.682 14.79,24.186 C14.79,24.128 14.79,24.07 14.848,24.07 C16.878,24.07 18.908,24.07 20.938,24.07 C20.88,30.566 20.88,37.12 20.88,43.674 Z M15.834,20.822 C14.906,20.184 14.152,18.85 14.326,17.284 C14.5,16.124 15.312,15.138 16.182,14.674 C16.472,14.5 16.878,14.384 17.342,14.384 C19.662,14.094 21.402,15.718 21.402,17.922 C21.344,20.59 18.27,22.446 15.834,20.822 Z M43.732,43.674 C41.702,43.674 39.672,43.674 37.642,43.674 C37.642,41.47 37.642,39.15 37.642,36.656 C37.642,33.698 38.048,30.276 36.018,29.232 C35.032,28.71 33.698,28.884 32.828,29.232 C30.624,30.218 30.798,33.35 30.798,36.772 C30.798,39.15 30.798,41.644 30.798,43.674 C28.768,43.674 26.738,43.674 24.708,43.674 C24.708,37.12 24.708,30.566 24.708,24.07 C26.68,24.07 28.594,24.07 30.566,24.07 C30.566,24.94 30.566,25.868 30.566,26.738 C30.798,26.564 30.856,26.332 31.03,26.1 C32.074,24.708 33.93,23.548 36.308,23.548 C39.324,23.548 41.47,24.592 42.572,26.506 C43.732,28.536 43.732,31.378 43.732,34.568 C43.732,37.526 43.732,40.774 43.732,43.674 Z" id="Shape"></path>
            </g>
        </g>
    </g>
</svg>