<?xml version="1.0" encoding="UTF-8"?>
<svg width="58px" height="58px" viewBox="0 0 58 58" version="1.1" xmlns="http://www.w3.org/2000/svg" xmlns:xlink="http://www.w3.org/1999/xlink">
    <title>hollow-cut-twitter</title>
    <g id="Platform" stroke="none" stroke-width="1" fill="none" fill-rule="evenodd">
        <g id="About-page" transform="translate(-267.000000, -3360.000000)" fill="#BABECB" fill-rule="nonzero">
            <g id="hollow-cut-twitter" transform="translate(267.000000, 3360.000000)">
                <path d="M29,0 C12.992,0 0,12.992 0,29 C0,45.008 12.992,58 29,58 C45.008,58 58,45.008 58,29 C58,12.992 45.008,0 29,0 Z M44.486,21.112 C44.66,26.39 43.152,30.624 41.18,33.93 C39.266,37.178 36.656,39.788 33.524,41.644 C30.392,43.558 26.216,44.95 21.286,44.776 C16.704,44.66 13.05,43.326 10.092,41.528 C9.918,41.412 9.686,41.296 9.57,41.122 C14.674,41.702 18.56,40.02 21.344,37.874 C19.314,37.816 17.748,37.12 16.588,36.134 C15.428,35.206 14.442,33.93 13.92,32.306 C14.964,32.538 16.472,32.48 17.4,32.19 C15.486,31.784 14.094,30.74 12.992,29.464 C11.89,28.246 11.136,26.564 11.136,24.244 C11.194,24.128 11.368,24.302 11.484,24.36 C12.354,24.766 13.456,25.114 14.674,25.172 C12.702,23.78 10.73,21.112 11.31,17.342 C11.484,16.24 11.832,15.312 12.296,14.5 C12.818,15.022 13.282,15.602 13.804,16.124 C17.4,19.72 22.04,22.33 28.768,22.852 C27.84,18.734 29.986,15.66 32.596,14.152 C34.046,13.34 36.076,12.934 38.048,13.34 C39.846,13.688 41.238,14.616 42.282,15.66 C44.254,15.312 45.82,14.558 47.328,13.746 C46.632,15.66 45.53,17.168 43.848,18.096 C45.472,17.98 47.038,17.4 48.372,16.878 C47.386,18.56 45.994,19.894 44.486,21.112 Z" id="Shape"></path>
            </g>
        </g>
    </g>
</svg>