<?xml version="1.0" encoding="UTF-8"?>
<svg width="58px" height="58px" viewBox="0 0 58 58" version="1.1" xmlns="http://www.w3.org/2000/svg" xmlns:xlink="http://www.w3.org/1999/xlink">
    <title>hollow-cut-youtube</title>
    <g id="Platform" stroke="none" stroke-width="1" fill="none" fill-rule="evenodd">
        <g id="About-page" transform="translate(-195.000000, -3360.000000)" fill="#BABECB" fill-rule="nonzero">
            <g id="hollow-cut-youtube" transform="translate(195.000000, 3360.000000)">
                <path d="M22.272,32.19 C22.272,31.436 22.272,30.74 22.272,29.986 C20.068,29.986 17.864,29.986 15.718,29.986 C15.66,29.986 15.718,30.044 15.718,30.044 C15.718,30.74 15.718,31.436 15.718,32.132 C16.472,32.132 17.284,32.074 17.922,32.132 C17.922,36.076 17.922,40.078 17.922,44.022 C18.618,44.022 19.372,44.022 20.068,44.022 C20.068,40.078 20.01,36.018 20.068,32.074 C20.822,32.19 21.518,32.19 22.272,32.19 Z" id="Path"></path>
                <path d="M25.81,40.426 C25.81,40.774 25.868,41.18 25.81,41.412 C25.752,41.702 24.998,42.282 24.592,42.224 C24.012,42.166 24.186,41.006 24.186,40.368 C24.186,38.048 24.186,35.844 24.186,33.582 C23.548,33.582 22.91,33.582 22.33,33.582 C22.272,33.582 22.33,33.64 22.33,33.64 C22.33,35.902 22.33,38.86 22.33,41.354 C22.33,42.282 22.272,43.152 22.62,43.616 C23.316,44.66 24.94,43.79 25.462,43.268 C25.578,43.152 25.694,42.978 25.868,42.92 C25.868,43.268 25.868,43.674 25.868,44.022 C26.506,44.022 27.144,44.022 27.782,44.022 C27.782,40.542 27.782,37.062 27.782,33.582 C27.144,33.582 26.506,33.582 25.868,33.582 C25.81,35.786 25.81,38.28 25.81,40.426 Z" id="Path"></path>
                <g id="Group">
                    <path d="M26.912,20.648 C26.912,21.112 26.854,21.924 27.028,22.214 C27.376,22.736 28.304,22.504 28.478,22.04 C28.652,21.634 28.536,20.938 28.536,20.474 C28.536,19.198 28.536,18.444 28.536,17.226 C28.536,16.646 28.652,15.95 28.478,15.66 C28.304,15.312 27.84,15.254 27.55,15.312 C26.738,15.428 26.912,16.472 26.912,17.342 C26.912,18.212 26.912,19.72 26.912,20.648 Z" id="Path"></path>
                    <path d="M29,0 C12.992,0 0,12.992 0,29 C0,45.008 12.992,58 29,58 C45.008,58 58,45.008 58,29 C58,12.992 45.008,0 29,0 Z M32.132,19.082 C32.132,17.168 32.132,15.37 32.132,13.746 C32.712,13.688 33.466,13.688 34.046,13.746 C34.046,15.022 34.046,16.356 34.046,17.748 C34.046,19.14 33.93,20.59 34.046,21.808 C34.162,22.504 34.684,22.446 35.148,22.098 C35.322,21.982 35.612,21.75 35.67,21.576 C35.728,21.344 35.67,20.88 35.67,20.59 C35.67,18.444 35.67,15.892 35.67,13.804 C36.25,13.746 37.004,13.746 37.584,13.804 C37.584,17.226 37.584,20.648 37.584,24.07 C37.004,24.128 36.25,24.128 35.67,24.07 C35.67,23.722 35.67,23.374 35.67,23.026 C35.206,23.548 33.698,24.882 32.654,24.012 C31.842,23.258 32.132,20.59 32.132,19.082 Z M27.376,13.456 C28.768,13.34 29.696,13.862 30.16,14.674 C30.682,15.544 30.508,17.516 30.508,18.792 C30.508,20.068 30.624,22.098 30.218,22.968 C29.58,24.186 27.55,24.766 26.216,23.896 C25.52,23.49 25.056,22.678 24.998,21.808 C24.882,20.88 24.998,19.778 24.998,18.734 C24.998,17.168 24.824,15.602 25.288,14.732 C25.636,14.094 26.332,13.572 27.376,13.456 Z M17.806,10.092 C18.444,10.034 19.256,10.092 19.952,10.092 C20.416,11.716 20.822,13.398 21.228,15.022 C21.286,15.254 21.286,15.486 21.46,15.66 C21.634,15.486 21.634,15.196 21.692,15.022 C22.098,13.398 22.504,11.658 22.91,10.092 C23.606,10.092 24.302,10.092 25.056,10.092 C24.418,12.412 23.606,14.848 22.91,17.226 C22.794,17.574 22.62,17.922 22.62,18.27 C22.562,18.734 22.62,19.256 22.62,19.72 C22.62,21.228 22.62,22.62 22.62,24.07 C21.924,24.07 21.17,24.128 20.474,24.07 C20.474,23.142 20.474,22.214 20.474,21.344 C20.474,20.416 20.59,19.488 20.474,18.618 C20.416,18.27 20.242,17.922 20.184,17.574 C19.314,15.022 18.618,12.47 17.806,10.092 L17.806,10.092 Z M44.66,42.862 C44.66,45.704 42.398,47.966 39.556,47.966 L18.386,47.966 C15.544,47.966 13.282,45.704 13.282,42.862 L13.282,31.9 C13.282,29.058 15.544,26.796 18.386,26.796 L39.556,26.796 C42.398,26.796 44.66,29.058 44.66,31.9 L44.66,42.862 Z" id="Shape"></path>
                </g>
                <path d="M35.09,39.092 C35.09,37.874 35.148,36.656 35.09,35.844 C35.032,34.974 34.8,34.22 34.336,33.872 C33.698,33.35 32.712,33.466 32.132,33.872 C31.9,34.046 31.726,34.278 31.494,34.394 C31.494,32.944 31.494,31.436 31.494,29.986 C30.856,29.986 30.218,29.986 29.58,29.986 C29.522,29.986 29.58,30.044 29.58,30.044 C29.58,34.742 29.58,39.382 29.58,44.08 C30.218,44.08 30.856,44.08 31.494,44.08 C31.494,43.848 31.494,43.558 31.494,43.326 C32.016,43.964 33.176,44.486 34.162,44.022 C34.684,43.732 35.032,43.094 35.09,42.34 C35.148,41.412 35.09,40.252 35.09,39.092 Z M32.828,42.572 C32.364,42.862 31.842,42.456 31.552,42.166 C31.552,40.774 31.552,38.976 31.552,37.41 C31.552,36.888 31.436,36.192 31.552,35.844 C31.668,35.496 32.306,35.206 32.77,35.496 C33.408,35.844 33.118,38.048 33.118,39.034 C33.118,39.672 33.118,40.31 33.118,41.006 C33.118,41.586 33.176,42.34 32.828,42.572 Z" id="Shape"></path>
                <path d="M42.166,40.252 C41.528,40.252 40.832,40.252 40.194,40.252 C40.136,41.006 40.368,42.108 39.846,42.456 C39.672,42.572 39.266,42.688 38.918,42.514 C38.106,42.166 38.628,40.252 38.454,39.208 C39.672,39.208 40.89,39.208 42.108,39.208 C42.05,37.758 42.224,36.366 41.992,35.206 C41.702,34.046 40.716,33.292 39.208,33.35 C37.816,33.408 36.714,34.394 36.54,35.612 C36.366,36.83 36.482,38.686 36.482,40.31 C36.482,42.05 36.656,43.21 37.642,43.906 C38.454,44.486 39.962,44.544 40.948,43.964 C41.992,43.384 42.224,42.108 42.166,40.252 Z M38.686,35.612 C38.918,35.264 39.556,35.264 39.904,35.496 C40.368,35.844 40.194,36.772 40.252,37.468 C39.672,37.468 39.092,37.468 38.57,37.468 C38.512,36.772 38.396,36.018 38.686,35.612 Z" id="Shape"></path>
            </g>
        </g>
    </g>
</svg>