<?xml version="1.0" encoding="UTF-8"?>
<svg width="58px" height="58px" viewBox="0 0 58 58" version="1.1" xmlns="http://www.w3.org/2000/svg" xmlns:xlink="http://www.w3.org/1999/xlink">
    <title>hollow-cut-facebook</title>
    <g id="Platform" stroke="none" stroke-width="1" fill="none" fill-rule="evenodd">
        <g id="About-page" transform="translate(-483.000000, -3360.000000)" fill="#BABECB" fill-rule="nonzero">
            <g id="hollow-cut-facebook" transform="translate(483.000000, 3360.000000)">
                <path d="M29,0 C12.992,0 0,12.992 0,29 C0,45.008 12.992,58 29,58 C45.008,58 58,45.008 58,29 C58,12.992 45.008,0 29,0 Z M33.06,21.402 C35.09,21.402 37.236,21.344 39.266,21.46 C39.208,23.606 39.266,25.868 39.208,28.014 C37.178,28.014 35.09,28.014 33.06,28.014 C33.06,34.8 33.06,41.528 33.06,48.314 C30.16,48.314 27.26,48.314 24.36,48.314 C24.36,41.528 24.36,34.8 24.36,28.014 C22.562,27.956 20.648,28.014 18.792,27.956 C18.792,25.752 18.792,23.548 18.792,21.344 C20.648,21.344 22.504,21.344 24.302,21.344 C24.36,19.604 24.302,18.038 24.418,16.646 C24.534,15.254 24.998,14.094 25.636,13.108 C26.912,11.252 29,9.744 31.842,9.628 C34.162,9.512 36.772,9.686 39.266,9.686 C39.266,11.89 39.324,14.152 39.208,16.298 C37.99,16.356 36.714,16.182 35.67,16.298 C34.568,16.414 33.756,17.052 33.408,17.864 C32.886,18.85 33.06,20.068 33.06,21.402 Z" id="Shape"></path>
            </g>
        </g>
    </g>
</svg>