<svg xmlns="http://www.w3.org/2000/svg" xmlns:xlink="http://www.w3.org/1999/xlink" width="50" height="50" viewBox="0 0 50 50">
  <defs>
    <clipPath id="clip-path">
      <rect id="Rectangle_1540" data-name="Rectangle 1540" width="50" height="50" transform="translate(0 0.281)" fill="#f1472f" stroke="#707070" stroke-width="1"/>
    </clipPath>
    <linearGradient id="linear-gradient" x1="0.5" y1="1" x2="0.5" gradientUnits="objectBoundingBox">
      <stop offset="0" stop-color="#ffaa9e"/>
      <stop offset="0.503" stop-color="#ffedeb"/>
      <stop offset="1" stop-color="#fff7f6"/>
    </linearGradient>
    <linearGradient id="linear-gradient-2" x1="0.5" y1="1" x2="0.5" gradientUnits="objectBoundingBox">
      <stop offset="0" stop-color="#f1472f"/>
      <stop offset="1" stop-color="#ffbab1"/>
    </linearGradient>
    <linearGradient id="linear-gradient-3" x1="0.5" y1="1" x2="0.5" gradientUnits="objectBoundingBox">
      <stop offset="0" stop-color="#addcff"/>
      <stop offset="0.503" stop-color="#eaf6ff"/>
      <stop offset="1" stop-color="#eaf6ff"/>
    </linearGradient>
  </defs>
  <g id="Mask_Group_3158" data-name="Mask Group 3158" transform="translate(0 -0.281)" clip-path="url(#clip-path)">
    <g id="picture" transform="translate(3.054 -0.362)">
      <path id="Path_30567" data-name="Path 30567" d="M49.3,10.4V49.238a1.472,1.472,0,0,1-1.486,1.486H6.209a1.472,1.472,0,0,1-1.486-1.486V1.486A1.471,1.471,0,0,1,6.209,0H38.9l2.972,7.43Z" transform="translate(-4.723)" fill="url(#linear-gradient)"/>
      <g id="Group_11183" data-name="Group 11183" transform="translate(5.746 0)">
        <g id="Group_11182" data-name="Group 11182">
          <path id="Path_30568" data-name="Path 30568" d="M44.964,14.96H15.045a1.486,1.486,0,0,0-1.486,1.486v21.2a1.486,1.486,0,0,1,.435-1.051l6.142-6.142a1.486,1.486,0,0,1,2.1,0l4.893,4.893L35,27.481a1.486,1.486,0,0,1,2.1,0L46.014,36.4a1.486,1.486,0,0,1,.435,1.051v-21A1.486,1.486,0,0,0,44.964,14.96Zm6.984-5.6L43.032.446A1.394,1.394,0,0,0,41.992,0V10.4h10.4A1.394,1.394,0,0,0,51.948,9.362Z" transform="translate(-13.559 0)" fill="url(#linear-gradient-2)"/>
        </g>
      </g>
      <g id="Group_11185" data-name="Group 11185" transform="translate(14.86 20.904)">
        <g id="Group_11184" data-name="Group 11184">
          <circle id="Ellipse_25" data-name="Ellipse 25" cx="4.458" cy="4.458" r="4.458" fill="url(#linear-gradient-3)"/>
        </g>
      </g>
    </g>
  </g>
</svg>
