<?xml version="1.0" encoding="UTF-8"?>
<svg width="22px" height="21px" viewBox="0 0 22 21" version="1.1" xmlns="http://www.w3.org/2000/svg" xmlns:xlink="http://www.w3.org/1999/xlink">
    <title>Plus</title>
    <g id="Platform" stroke="none" stroke-width="1" fill="none" fill-rule="evenodd">
        <g id="My-Bikes" transform="translate(-870.000000, -927.000000)" fill="#e83f3f" fill-rule="nonzero">
            <g id="Add-icon-Copy-2" transform="translate(725.000000, 793.000000)">
                <path d="M156,142.69425 L150.429188,137.123438 C149.981987,136.676237 149.256931,136.676237 148.809729,137.123438 C148.362528,137.570639 148.362528,138.295695 148.809729,138.742897 L154.380541,144.313708 L154.380541,144.313708 L148.809729,149.88452 C148.362528,150.331722 148.362528,151.056778 148.809729,151.503979 C149.256931,151.95118 149.981987,151.95118 150.429188,151.503979 L156,145.933167 L156,145.933167 L161.570812,151.503979 C162.018013,151.95118 162.743069,151.95118 163.190271,151.503979 C163.637472,151.056778 163.637472,150.331722 163.190271,149.88452 L157.619459,144.313708 L157.619459,144.313708 L163.190271,138.742897 C163.637472,138.295695 163.637472,137.570639 163.190271,137.123438 C162.743069,136.676237 162.018013,136.676237 161.570812,137.123438 L156,142.69425 L156,142.69425 Z" id="Path" transform="translate(156.000000, 144.313708) rotate(-315.000000) translate(-156.000000, -144.313708) "></path>
            </g>
        </g>
    </g>
</svg>