<?xml version="1.0" encoding="UTF-8"?>
<svg width="24" height="24" viewBox="0 0 24 24" version="1.1" xmlns="http://www.w3.org/2000/svg" xmlns:xlink="http://www.w3.org/1999/xlink">
    <title>Next Btn</title>
    <g id="Platform" stroke="none" stroke-width="1" fill="none" fill-rule="evenodd">
        <g id="Bike-profile" transform="translate(-480.000000, -532.000000)">
            <g id="Question" transform="translate(400.000000, 112.000000)">
                <g id="Next-Btn" transform="translate(92.000000, 432.000000) scale(-1, 1) translate(-92.000000, -432.000000) translate(80.000000, 420.000000)">
                    <circle id="Oval-2" fill="#E83F3F" cx="12" cy="12" r="12"></circle>
                    <path d="M10.0105572,18 C9.95581595,18 9.90303056,17.9902249 9.85219941,17.9706745 C9.80136827,17.951124 9.75640293,17.9217988 9.71730205,17.8826979 C9.63910029,17.8044962 9.6,17.7106555 9.6,17.601173 C9.6,17.4916906 9.63910029,17.3978499 9.71730205,17.3196481 L15.0780059,11.9589443 L9.79941349,6.69208211 C9.72121173,6.61388035 9.68211144,6.51808463 9.68211144,6.40469208 C9.68211144,6.29129953 9.72121173,6.19550381 9.79941349,6.11730205 C9.87761525,6.03910029 9.97341097,6 10.0868035,6 C10.2001961,6 10.2959918,6.03910029 10.3741935,6.11730205 L15.9225806,11.6774194 C16.0007824,11.7556211 16.0398827,11.8494618 16.0398827,11.9589443 C16.0398827,12.0684267 16.0007824,12.1622674 15.9225806,12.2404692 L10.2920821,17.8826979 C10.2529812,17.9217988 10.2080159,17.951124 10.1571848,17.9706745 C10.1063536,17.9902249 10.0574782,18 10.0105572,18 Z" id="Arrow-right---simple-line-icons" stroke="#FFFFFF" stroke-width="0.6" fill="#FFFFFF"></path>
                </g>
            </g>
        </g>
    </g>
</svg>