<svg xmlns="http://www.w3.org/2000/svg" xmlns:xlink="http://www.w3.org/1999/xlink" width="16" height="16" viewBox="0 0 16 16"><g transform="translate(25.16 -12)"><g transform="translate(-25.16 12)"><path d="M16,12.115,12.669,8.782v2.647h-.326c-1.524,0-2.506-.9-3.4-2.154-.245.4-.5.817-.785,1.231A5.176,5.176,0,0,0,12.343,12.8h.326v2.646Z" fill="#db2828"/><path d="M16,3.886,12.669.553V3.2h-.326C9.444,3.2,8,5.56,6.729,7.643c-1.242,2.032-2.314,3.786-4.443,3.786H0V12.8H2.286c2.9,0,4.341-2.36,5.614-4.442,1.242-2.032,2.314-3.786,4.443-3.786h.326V7.218Z" fill="#db2828"/><path d="M2.286,3.2H0V4.572H2.286c1.524,0,2.506.9,3.4,2.154.246-.4.5-.817.785-1.231A5.175,5.175,0,0,0,2.286,3.2Z" fill="#db2828"/></g></g></svg>