<?xml version="1.0" encoding="UTF-8"?>
<svg width="20px" height="20px" viewBox="0 0 20 20" version="1.1" xmlns="http://www.w3.org/2000/svg" xmlns:xlink="http://www.w3.org/1999/xlink">
    <title>Search</title>
    <g id="Page-1" stroke="none" stroke-width="1" fill="none" fill-rule="evenodd">
        <g id="My-Profile" transform="translate(-1196.000000, -34.000000)" fill="#e83f3f" fill-rule="nonzero">
            <g id="Group-2-Copy-6" transform="translate(1196.000000, 33.000000)">
                <path d="M13.12581,15.5670343 C9.73342522,18.2036449 4.87674923,17.7469354 2.03481505,14.5240651 C-0.807119132,11.3011949 -0.654761855,6.4230136 2.38274722,3.38395933 C5.42025629,0.344905065 10.2959573,0.192470283 13.5171889,3.03585017 C16.7384204,5.87923006 17.1948978,10.7383767 14.5596277,14.1324872 L20,19.5552788 L18.5560133,21 L13.1359789,15.5670343 L13.12581,15.5670343 Z M8.14303915,15.2414633 C10.3228423,15.2414633 12.3370635,14.0779606 13.4269651,12.1892354 C14.5168667,10.3005102 14.5168667,7.97350473 13.4269651,6.08477951 C12.3370635,4.19605428 10.3228423,3.03255161 8.14303915,3.03255161 C4.77335549,3.03255161 2.04168718,5.76560962 2.04168718,9.13700746 C2.04168718,12.5084053 4.77335549,15.2414633 8.14303915,15.2414633 L8.14303915,15.2414633 Z" id="Shape"></path>
            </g>
        </g>
    </g>
</svg>