<?xml version="1.0" encoding="UTF-8"?>
<svg width="16" height="16" viewBox="0 0 16 16" version="1.1" xmlns="http://www.w3.org/2000/svg" xmlns:xlink="http://www.w3.org/1999/xlink">
    <title>Search</title>
    <g id="Platform" stroke="none" stroke-width="1" fill="none" fill-rule="evenodd">
        <g id="Search---Bikes" transform="translate(-480.000000, -245.000000)" fill="#e83f3f" fill-rule="nonzero">
            <g id="Creat-a-post" transform="translate(400.000000, 112.000000)">
                <g id="Which-bike" transform="translate(80.000000, 130.000000)">
                    <path d="M10.500648,14.6536274 C7.78674017,16.7629159 3.90139939,16.3975483 1.62785204,13.8192521 C-0.645695306,11.2409559 -0.523809484,7.33841088 1.90619777,4.90716747 C4.33620503,2.47592405 8.23676585,2.35397623 10.8137511,4.62868014 C13.3907364,6.90338405 13.7559182,10.7907013 11.6477022,13.5059897 L16,17.844223 L14.8448107,19 L10.5087831,14.6536274 L10.500648,14.6536274 Z M6.51443132,14.3931706 C8.25827385,14.3931706 9.86965082,13.4623685 10.7415721,11.9513883 C11.6134934,10.4404081 11.6134934,8.57880379 10.7415721,7.06782361 C9.86965082,5.55684342 8.25827385,4.62604129 6.51443132,4.62604129 C3.81868439,4.62604129 1.63334974,6.8124877 1.63334974,9.50960597 C1.63334974,12.2067242 3.81868439,14.3931706 6.51443132,14.3931706 L6.51443132,14.3931706 Z" id="Shape-Copy-2"></path>
                </g>
            </g>
        </g>
    </g>
</svg>