<?xml version="1.0" encoding="UTF-8"?>
<svg width="17" height="20" viewBox="0 0 17 20" version="1.1" xmlns="http://www.w3.org/2000/svg" xmlns:xlink="http://www.w3.org/1999/xlink">
    <title>Share</title>
    <g id="Platform" stroke="none" stroke-width="1" fill="none" fill-rule="evenodd">
        <g id="Platform-Home-3" transform="translate(-452.000000, -802.000000)"  fill="#e83f3f" fill-rule="nonzero">
            <g id="Post" transform="translate(400.000000, 192.000000)">
                <g id="Ei-share-apple-Copy" transform="translate(52.000000, 610.000000)">
                    <g transform="translate(0.000000, 0.000000)">
                        <polygon id="Path" fill-rule="nonzero" points="11.48543 4.76190476 8.0952381 1.64609053 4.7050462 4.76190476 3.80952381 3.93885949 8.0952381 0 12.3809524 3.93885949"></polygon>
                        <polygon id="Path" fill-rule="nonzero" points="7.61904762 0.952380952 8.57142857 0.952380952 8.57142857 13.3333333 7.61904762 13.3333333"></polygon>
                        <path d="M14.3223443,20 L1.86813187,20 C0.80952381,20 0,19.2261905 0,18.2142857 L0,7.5 C0,6.48809524 0.80952381,5.71428571 1.86813187,5.71428571 L6.22710623,5.71428571 L6.22710623,6.9047619 L1.86813187,6.9047619 C1.49450549,6.9047619 1.24542125,7.14285714 1.24542125,7.5 L1.24542125,18.2142857 C1.24542125,18.5714286 1.49450549,18.8095238 1.86813187,18.8095238 L14.3223443,18.8095238 C14.6959707,18.8095238 14.9450549,18.5714286 14.9450549,18.2142857 L14.9450549,7.5 C14.9450549,7.14285714 14.6959707,6.9047619 14.3223443,6.9047619 L9.96336996,6.9047619 L9.96336996,5.71428571 L14.3223443,5.71428571 C15.3809524,5.71428571 16.1904762,6.48809524 16.1904762,7.5 L16.1904762,18.2142857 C16.1904762,19.2261905 15.3809524,20 14.3223443,20 Z" id="Path" fill-rule="nonzero"></path>
                    </g>
                </g>
            </g>
        </g>
    </g>
</svg>
