<?xml version="1.0" encoding="UTF-8"?>
<svg width="22" height="16" viewBox="0 0 22 16" version="1.1" xmlns="http://www.w3.org/2000/svg" xmlns:xlink="http://www.w3.org/1999/xlink">
    <title>Tags</title>
    <g id="Platform" stroke="none" stroke-width="1" fill="none" fill-rule="evenodd">
        <g id="Create-trip-post" transform="translate(-775.000000, -203.000000)" fill="#e83f3f" fill-rule="nonzero">
            <g id="Creat-a-post" transform="translate(400.000000, 112.000000)">
                <g id="Trip-Copy" transform="translate(375.000000, 91.000000)">
                    <path d="M19.5555556,0 L6.22222222,0 C5.60888889,0 5.12888889,0.311111111 4.80888889,0.782222222 L0,8 L4.80888889,15.2088889 C5.12888889,15.68 5.67111111,16 6.28444444,16 L19.5555556,16 C20.5333333,16 21.3333333,15.2 21.3333333,14.2222222 L21.3333333,1.77777778 C21.3333333,0.8 20.5333333,0 19.5555556,0 Z M8,9.33333333 C7.26222222,9.33333333 6.66666667,8.73777778 6.66666667,8 C6.66666667,7.26222222 7.26222222,6.66666667 8,6.66666667 C8.73777778,6.66666667 9.33333333,7.26222222 9.33333333,8 C9.33333333,8.73777778 8.73777778,9.33333333 8,9.33333333 Z M12.4444444,9.33333333 C11.7066667,9.33333333 11.1111111,8.73777778 11.1111111,8 C11.1111111,7.26222222 11.7066667,6.66666667 12.4444444,6.66666667 C13.1822222,6.66666667 13.7777778,7.26222222 13.7777778,8 C13.7777778,8.73777778 13.1822222,9.33333333 12.4444444,9.33333333 Z M16.8888889,9.33333333 C16.1511111,9.33333333 15.5555556,8.73777778 15.5555556,8 C15.5555556,7.26222222 16.1511111,6.66666667 16.8888889,6.66666667 C17.6266667,6.66666667 18.2222222,7.26222222 18.2222222,8 C18.2222222,8.73777778 17.6266667,9.33333333 16.8888889,9.33333333 Z" id="Shape" transform="translate(10.666667, 8.000000) scale(-1, 1) translate(-10.666667, -8.000000) "></path>
                </g>
            </g>
        </g>
    </g>
</svg>