<?xml version="1.0" encoding="UTF-8"?>
<svg width="20px" height="20px" viewBox="0 0 20 20" version="1.1" xmlns="http://www.w3.org/2000/svg" xmlns:xlink="http://www.w3.org/1999/xlink">
    <title>Trips</title>
    <g id="Page-1" stroke="none" stroke-width="1" fill="none" fill-rule="evenodd">
        <g id="My-Profile" transform="translate(-1066.000000, -211.000000)" fill="#e83f3f" fill-rule="nonzero">
            <g id="Right-Menu" transform="translate(1064.000000, 112.000000)">
                <path d="M12,99 C6.48,99 2,103.48 2,109 C2,114.52 6.48,119 12,119 C17.52,119 22,114.52 22,109 C22,103.48 17.52,99 12,99 Z M11,116.93 C7.05,116.44 4,113.08 4,109 C4,108.38 4.08,107.79 4.21,107.21 L9,112 L9,113 C9,114.1 9.9,115 11,115 L11,116.93 Z M17.9,114.39 C17.64,113.58 16.9,113 16,113 L15,113 L15,110 C15,109.45 14.55,109 14,109 L8,109 L8,107 L10,107 C10.55,107 11,106.55 11,106 L11,104 L13,104 C14.1,104 15,103.1 15,102 L15,101.59 C17.93,102.78 20,105.65 20,109 C20,111.08 19.2,112.97 17.9,114.39 Z" id="Shape"></path>
            </g>
        </g>
    </g>
</svg>