<svg xmlns="http://www.w3.org/2000/svg" width="83.269" height="46.796" viewBox="0 0 83.269 46.796"><path d="M9.234,46.8V13.839a4.6,4.6,0,1,1,9.2,0h0V46.8h9.234V13.839a4.613,4.613,0,0,1,7.867-3.267,4.79,4.79,0,0,1,1,1.464,4.406,4.406,0,0,1,.37,1.8h0V46.8h9.2V13.839A13.593,13.593,0,0,0,45.03,8.448a13.771,13.771,0,0,0-7.368-7.37A13.661,13.661,0,0,0,23.07,3.572,13.442,13.442,0,0,0,18.791.917a13.929,13.929,0,0,0-10.344.161,13.771,13.771,0,0,0-7.368,7.37A13.593,13.593,0,0,0,0,13.839H0V46.8Z" transform="translate(37.161)" fill="#333"/><path d="M9.234,46.8V13.839a4.6,4.6,0,1,1,9.2,0h0V46.8h9.234V13.839a4.613,4.613,0,0,1,7.867-3.267,4.79,4.79,0,0,1,1,1.464,4.406,4.406,0,0,1,.37,1.8h0V46.8h9.2V13.839A13.593,13.593,0,0,0,45.03,8.448a13.771,13.771,0,0,0-7.368-7.37A13.661,13.661,0,0,0,23.07,3.572,13.442,13.442,0,0,0,18.791.917a13.929,13.929,0,0,0-10.344.161,13.771,13.771,0,0,0-7.368,7.37A13.593,13.593,0,0,0,0,13.839H0V46.8Z" fill="#fff"/><path d="M9.234,46.8V13.839a4.6,4.6,0,1,1,9.2,0h0V46.8h9.234V13.839a4.613,4.613,0,0,1,7.867-3.267,4.79,4.79,0,0,1,1,1.464,4.406,4.406,0,0,1,.37,1.8h0V46.8h9.2V13.839A13.593,13.593,0,0,0,45.03,8.448a13.771,13.771,0,0,0-7.368-7.37A13.661,13.661,0,0,0,23.07,3.572,13.442,13.442,0,0,0,18.791.917a13.929,13.929,0,0,0-10.344.161,13.771,13.771,0,0,0-7.368,7.37A13.593,13.593,0,0,0,0,13.839H0V46.8Z" transform="translate(37.161)" fill="#333" opacity="0.4"/></svg>